<svg id="Layer_1" data-name="Layer 1" xmlns="http://www.w3.org/2000/svg" viewBox="0 0 512 512"><defs><style>.cls-1{fill:#555656;}.cls-2{fill:#d5d9d9;}.cls-3{fill:#3a3a3a;}.cls-4{fill:#383838;}.cls-5{fill:#7b7979;}.cls-6{fill:#aca9a9;}.cls-7{fill:#777878;}.cls-8{fill:#535151;}.cls-9{fill:#b5b7b7;}.cls-10{fill:#535555;}.cls-11{fill:#bde1e1;}.cls-12{fill:#edd5d5;}.cls-13{fill:#c4a5a5;}.cls-14{fill:#8b7676;}.cls-15{fill:#575353;}.cls-16{fill:#595353;}.cls-17{fill:#d7b8b8;}.cls-18{fill:#daf8f8;}.cls-19{fill:#d1cfcf;}.cls-20{fill:#d0cccc;}.cls-21{fill:#827f7f;}.cls-22{fill:#e0e3e3;}.cls-23{fill:#ac8f8f;}.cls-24{fill:#8a7575;}.cls-25{fill:#777c7c;}.cls-26{fill:#959898;}.cls-27{fill:#93b5b5;}.cls-28{fill:#95b8b8;}.cls-29{fill:#f5e2e2;}.cls-30{fill:#596060;}.cls-31{fill:#525656;}.cls-32{fill:#718585;}.cls-33{fill:#b7dddd;}.cls-34{fill:#a7adad;}.cls-35{fill:#778f8f;}.cls-36{fill:#f7c442;}.cls-37{fill:#010100;}.cls-38{fill:#91a037;}.cls-39{fill:#fff;}.cls-40{fill:#f7c342;}.cls-41{fill:#f6c442;}.cls-42{fill:#f6c342;}.cls-43{fill:#717b2c;}.cls-44{fill:#773117;}.cls-45{fill:#fdc484;}.cls-46{fill:#710f11;}.cls-47{fill:#f7ec18;}.cls-48{fill:#731012;}.cls-49{fill:#700f11;}.cls-50{fill:#f9fafa;}.cls-51{fill:#d56646;}.cls-52{fill:#89b87d;}.cls-53{fill:#3f7e56;}.cls-54{fill:#771711;}.cls-55{fill:#060303;}.cls-56{fill:#040202;}.cls-57{fill:#050303;}.cls-58{fill:#fcfdfd;}.cls-59{fill:#fafbfb;}.cls-60{fill:#fafcfc;}</style></defs><path class="cls-1" d="M.6,257.93v-4.69c.42-.66,0-1.43.26-2.12a.47.47,0,0,1,.55-.06,1.59,1.59,0,0,1,.3.54,45,45,0,0,1-.16,10.11c-.9.5-.7-.24-.76-.68s0-.79,0-1.18C.7,259.21,1,258.54.6,257.93Z"/><path class="cls-2" d="M1,260.81c.11.38,0,.8.29,1.15a4.85,4.85,0,0,1,0,5,1.07,1.07,0,0,1-.31-.78c0-.81,0-1.62,0-2.42A1,1,0,0,0,.6,263v-2.16C.72,260.65.84,260.66,1,260.81Z"/><path class="cls-3" d="M259.25,511.54h-5.41A.4.4,0,0,1,254,511a8.93,8.93,0,0,1,5.12,0A.4.4,0,0,1,259.25,511.54Z"/><path class="cls-4" d="M254.56,0h4.33a.39.39,0,0,1-.13.55,5.93,5.93,0,0,1-4.07,0A.39.39,0,0,1,254.56,0Z"/><path class="cls-4" d="M512.13,253.6v4.33a.38.38,0,0,1-.54-.13,6,6,0,0,1,0-4.06A.39.39,0,0,1,512.13,253.6Z"/><path class="cls-5" d="M512.13,247.47v3.25a.38.38,0,0,1-.53-.12,3.62,3.62,0,0,1,0-3A.37.37,0,0,1,512.13,247.47Z"/><path class="cls-6" d="M512.13,247.47l-.14,0h-.15a2.81,2.81,0,0,1-.26-3.08.39.39,0,0,1,.55-.15Z"/><path class="cls-7" d="M512.13,260.46v2.88a.38.38,0,0,1-.53-.1,3.07,3.07,0,0,1,0-2.68A.38.38,0,0,1,512.13,260.46Z"/><path class="cls-8" d="M511.83,250.69c.1,0,.2,0,.3,0v2.88l-.3,0A2.08,2.08,0,0,1,511.83,250.69Z"/><path class="cls-9" d="M512.13,265.15V268a.38.38,0,0,1-.53-.1,3.07,3.07,0,0,1,0-2.68A.38.38,0,0,1,512.13,265.15Z"/><path class="cls-10" d="M512.13,260.46l-.3,0a1.74,1.74,0,0,1,0-2.52l.31,0Z"/><path class="cls-11" d="M247,511.54l-.06-.39a2.22,2.22,0,0,1,2.44-.17.4.4,0,0,1,.14.56Z"/><path class="cls-12" d="M244.43.32a1.73,1.73,0,0,0,0-.32H247a.4.4,0,0,1-.14.55A2,2,0,0,1,244.43.32Z"/><path class="cls-13" d="M247,.31A3,3,0,0,1,247,0h2.52a.39.39,0,0,1-.14.55A2,2,0,0,1,247,.31Z"/><path class="cls-14" d="M249.49.3c0-.1,0-.2,0-.3H252a.4.4,0,0,1-.14.55A2,2,0,0,1,249.49.3Z"/><path class="cls-15" d="M252,.3l0-.3h2.52c0,.1,0,.2,0,.3A1.74,1.74,0,0,1,252,.3Z"/><path class="cls-16" d="M258.92.31l0-.31h2.53a.38.38,0,0,1-.13.54A2,2,0,0,1,258.92.31Z"/><path class="cls-17" d="M265,0h2.53a.36.36,0,0,1-.1.52,2.49,2.49,0,0,1-2.33,0A.38.38,0,0,1,265,0Z"/><path class="cls-18" d="M267.6,511.12l-.05.42h-2.17a.38.38,0,0,1,.13-.54A1.84,1.84,0,0,1,267.6,511.12Z"/><path class="cls-19" d="M512.13,244.22h-.3a1.43,1.43,0,0,1,0-2.16.51.51,0,0,1,.3,0Z"/><path class="cls-20" d="M.6,248.91H1a1.56,1.56,0,0,1,0,2.17H1c-.12.17-.24.16-.36,0Z"/><path class="cls-21" d="M.6,251.08H1c0,.53,0,1,0,1.57a.77.77,0,0,1-.32.59Z"/><path class="cls-22" d="M511.83,268.05a.76.76,0,0,0,.3,0v1.81h-.3A1.14,1.14,0,0,1,511.83,268.05Z"/><path class="cls-23" d="M265,0c0,.1,0,.2,0,.3a1.28,1.28,0,0,1-1.7.23.36.36,0,0,1-.12-.53Z"/><path class="cls-24" d="M263.22,0c0,.1,0,.2,0,.3a1.14,1.14,0,0,1-1.79,0c0-.1,0-.2,0-.3Z"/><path class="cls-25" d="M.6,257.93a.78.78,0,0,1,.33.59l0,1.22q-.18.24-.36,0Z"/><path class="cls-26" d="M512.13,265.15h-.3a1.14,1.14,0,0,1,0-1.8,1,1,0,0,0,.29,0Z"/><path class="cls-27" d="M249.51,511.54c0-.12,0-.23,0-.35a1.36,1.36,0,0,1,1.71-.18.37.37,0,0,1,.11.53Z"/><path class="cls-28" d="M263.94,511.54h-1.8a.36.36,0,0,1,.07-.51,1.56,1.56,0,0,1,1.66,0A.36.36,0,0,1,263.94,511.54Z"/><path class="cls-29" d="M267.57.32c0-.11,0-.21,0-.32H269l0,.32A.93.93,0,0,1,267.57.32Z"/><path class="cls-30" d="M253.82,511.22c0,.11,0,.21,0,.32H252.4a.36.36,0,0,1,.08-.51A1,1,0,0,1,253.82,511.22Z"/><path class="cls-31" d="M259.25,511.54c0-.11,0-.22,0-.32a1,1,0,0,1,1.34-.19.35.35,0,0,1,.09.51Z"/><path class="cls-32" d="M260.7,511.54c0-.11,0-.21,0-.32a.93.93,0,0,1,1.44,0c0,.11,0,.22,0,.33Z"/><path class="cls-33" d="M263.94,511.54c0-.12,0-.24,0-.35a1,1,0,0,1,1.45,0c0,.12,0,.24,0,.36Z"/><path class="cls-34" d="M.6,259.74H1c0,.36,0,.72,0,1.07H.6Z"/><path class="cls-35" d="M252.38,511.22c0,.11,0,.21,0,.32h-1.08c0-.11,0-.21,0-.32A.7.7,0,0,1,252.38,511.22Z"/><path d="M252.38,511.22H251.3a5,5,0,0,0-1.8,0,8.51,8.51,0,0,0-2.57,0c-1.38-.1-2.75-.24-4.13-.29-3-.12-6-.38-9-.66-1.73-.16-3.47-.31-5.2-.49-1.38-.14-2.75-.3-4.12-.47s-2.62-.38-3.93-.55c-2.85-.38-5.7-.85-8.54-1.36q-3.9-.69-7.78-1.49c-6.29-1.3-12.51-2.87-18.68-4.65a250,250,0,0,1-49.89-20.37A256.63,256.63,0,0,1,23.16,359.68,251,251,0,0,1,8.83,318.21c-1.39-5.53-2.61-11.1-3.61-16.72-.69-3.84-1.31-7.69-1.82-11.56-.41-3-.75-6.09-1.06-9.13-.46-4.49-.73-9-1-13.49a2.14,2.14,0,0,0-.06-.35c0-.42.06-.83.06-1.25,0-1.25-.05-2.5-.08-3.75a7.75,7.75,0,0,0,.1-1.06c-.1-3.11-.14-6.21,0-9.31a3.07,3.07,0,0,0-.05-.53,13.68,13.68,0,0,1,0-4c0-3.36.27-6.72.5-10.08.22-3.18.57-6.34.9-9.51q.38-3.58.85-7.16c.34-2.5.71-5,1.15-7.48.5-2.9,1.07-5.78,1.64-8.67,1.18-5.95,2.64-11.83,4.28-17.67a252.25,252.25,0,0,1,24.6-58.43A256.65,256.65,0,0,1,159.24,19.31,251.58,251.58,0,0,1,193.9,7.86c4.54-1.15,9.11-2.19,13.7-3.08,3.89-.76,7.8-1.43,11.72-2,2.74-.38,5.47-.79,8.22-1.06,3.11-.31,6.22-.66,9.33-.93,2.28-.19,4.56-.29,6.84-.43l.72-.07a10.79,10.79,0,0,0,2.54,0,11.18,11.18,0,0,0,2.52,0A11.18,11.18,0,0,0,252,.3a11.89,11.89,0,0,0,2.53,0h8.69A5.5,5.5,0,0,0,265,.3a11.27,11.27,0,0,0,2.53,0H269l4.13.31c2.28.16,4.56.3,6.83.49,1.74.15,3.47.36,5.2.55l3.76.45c3.22.37,6.42.88,9.62,1.39,4.69.74,9.34,1.65,14,2.69q10.55,2.35,20.85,5.6A253.43,253.43,0,0,1,405.68,48a256.38,256.38,0,0,1,85.77,106.48,250.38,250.38,0,0,1,13.18,39c1.39,5.6,2.61,11.22,3.62,16.9.68,3.85,1.31,7.7,1.78,11.57.31,2.51.64,5,.92,7.51.2,1.85.31,3.72.48,5.57.22,2.33.32,4.67.4,7a8.67,8.67,0,0,0,0,2.16,17.53,17.53,0,0,0,0,3.24,18.45,18.45,0,0,0,0,3.24v2.89c0,1.46,0,2.92,0,4.38,0,.84,0,1.68,0,2.52s0,1.92,0,2.88v1.8a14.69,14.69,0,0,0,0,2.89v1.79a2.23,2.23,0,0,0-.05.36c0,3.13-.33,6.24-.65,9.35-.29,2.81-.53,5.62-.89,8.42s-.84,5.82-1.28,8.73c-.59,3.92-1.35,7.81-2.16,11.69q-2.22,10.67-5.38,21.1a250.78,250.78,0,0,1-34.32,71.24,255,255,0,0,1-102.88,86.84A247.61,247.61,0,0,1,321.45,503q-8.37,2.18-16.85,3.81c-4,.76-8,1.41-12.09,2-3.51.49-7,.88-10.55,1.27-2,.22-4,.3-5.93.49-2.39.22-4.79.32-7.2.43a10.46,10.46,0,0,0-1.23.19,5.44,5.44,0,0,0-2.2.06,3.09,3.09,0,0,0-1.45,0,5.18,5.18,0,0,0-1.8,0h-9.77Z"/><path class="cls-21" d="M1.27,247.07a5.46,5.46,0,0,1,.1.69c0,1.1-.06,2.2-.1,3.3a1.06,1.06,0,0,1-.31,0c0-.33,0-.67,0-1s0-.78,0-1.17.06-.69.08-1A1.4,1.4,0,0,1,1.27,247.07Z"/><path class="cls-36" d="M257.74,7.19c1.19,0,3.42,0,5.64.06,3.73.1,7.45.27,11.16.58,2.16.17,4.32.32,6.48.51,1.61.15,3.22.35,4.83.54l3.58.45c6.32.8,12.58,1.9,18.82,3.21q11.38,2.39,22.48,5.85A248.74,248.74,0,0,1,496.85,191.53q2.34,8.7,4,17.56c.76,4,1.45,8,2,12.09.3,2.38.65,4.76.93,7.15.2,1.79.34,3.59.49,5.39.19,2.27.36,4.55.54,6.83,0,.29.05.59.06.89.31,6.73.54,13.46.33,20.2-.08,2.7-.15,5.41-.33,8.1-.24,3.72-.46,7.44-.9,11.14-.31,2.57-.53,5.15-.87,7.71q-.71,5.27-1.63,10.5-1.14,6.39-2.59,12.71A241.88,241.88,0,0,1,487.49,348,249,249,0,0,1,330.77,493q-11.36,3.56-23,6c-4.3.89-8.61,1.66-12.94,2.36-2.14.34-4.28.61-6.43.87-2.68.33-5.37.66-8.06.93-2,.2-4.07.3-6.11.49-3.65.33-7.32.39-11,.52-4.57.17-9.14.18-13.71,0-.78,0-1.56-.08-2.34-.08-3.19,0-6.37-.29-9.54-.51s-6.22-.62-9.33-.91-6.33-.75-9.47-1.24q-8.19-1.26-16.29-3.06-9.85-2.19-19.5-5.17A248.94,248.94,0,0,1,71.82,421.81a249.47,249.47,0,0,1-33.47-47.27A246.66,246.66,0,0,1,17.94,325q-3.06-10.56-5.15-21.35-1.23-6.37-2.16-12.79c-.5-3.45-.89-6.91-1.27-10.38-.22-2-.31-4.07-.51-6.11-.29-3-.32-6-.53-9-.07-1.07-.1-2.16-.1-3.24,0-4.27-.07-8.54,0-12.8.07-3.73.24-7.45.56-11.17.18-2.09.3-4.19.49-6.29.16-1.73.37-3.46.57-5.19.13-1.14.28-2.27.42-3.4.55-4.53,1.31-9,2.14-13.53q1.54-8.33,3.67-16.52a247.59,247.59,0,0,1,43.05-88.34,248.14,248.14,0,0,1,141.63-91.4q6.77-1.56,13.61-2.72,5.41-.91,10.87-1.63c2.68-.35,5.37-.59,8.06-.85,2.22-.22,4.43-.39,6.65-.57l.9-.07C247.48,7.27,250.36,7.18,257.74,7.19Z"/><path d="M256.66,83.62c2.22,0,4.45,0,6.67.12,2.82.1,5.64.27,8.45.56,1.56.16,3.12.28,4.67.46,2.15.26,4.3.51,6.43.84,3.27.5,6.52,1.08,9.75,1.78a174.92,174.92,0,0,1,22,6.26A172.07,172.07,0,0,1,424.75,219.13c.87,4,1.58,8,2.16,12.06.35,2.5.58,5,.86,7.52.54,4.78.73,9.59.81,14.4q.12,6.31-.25,12.62c-.18,3.35-.49,6.71-.88,10-.43,3.64-.95,7.27-1.61,10.87A172.35,172.35,0,0,1,313.59,418a161,161,0,0,1-23.27,6.35c-3.6.71-7.2,1.32-10.84,1.8s-7.28.83-10.94,1.1a179.7,179.7,0,0,1-21.27.17c-3.48-.15-7-.48-10.41-.88-3.71-.43-7.39-.95-11.06-1.62a172.39,172.39,0,0,1-124.12-94.45A168.28,168.28,0,0,1,88.89,294q-1.4-6.15-2.35-12.38c-.53-3.51-.92-7-1.26-10.56a176.38,176.38,0,0,1-.54-22.52c.09-2.64.23-5.28.53-7.91.19-1.74.3-3.48.5-5.21.23-2,.48-3.94.79-5.89.57-3.56,1.22-7.1,2-10.63A167.55,167.55,0,0,1,96.35,193a171.84,171.84,0,0,1,125-105.79c3.83-.79,7.67-1.47,11.54-2,2.62-.37,5.24-.67,7.88-.88A152.23,152.23,0,0,1,256.66,83.62Z"/><path d="M50.52,204.79a31,31,0,0,1,9.92,1.59,19.33,19.33,0,0,1,4.68,2.28,14.08,14.08,0,0,1,6.28,10.08,20.87,20.87,0,0,1-.22,6.46A21.72,21.72,0,0,1,69,231.67a12.27,12.27,0,0,1-8.71,6.39,22.17,22.17,0,0,1-7.18.21A32.46,32.46,0,0,1,47,237a20.48,20.48,0,0,1-5-2.35,14,14,0,0,1-6.17-8.77,16.42,16.42,0,0,1-.36-5.55,30,30,0,0,1,.91-5,19,19,0,0,1,1.55-3.83,12.38,12.38,0,0,1,8.37-6.31A19.67,19.67,0,0,1,50.52,204.79Z"/><path d="M49.13,249.83a3.09,3.09,0,0,0,.61-1.14,7.8,7.8,0,0,1,5.65-4.61c4.33-.93,8.55.59,10.8,4.6a15.17,15.17,0,0,1,1.86,6.16c.11,1.2.15,2.4.17,3.6,0,2.59.08,5.17.1,7.76a6.17,6.17,0,0,1-.14,1.42,1.91,1.91,0,0,1-1.79,1.52c-.42,0-.84,0-1.26,0L37,269.46a14.6,14.6,0,0,1-1.62,0,3,3,0,0,1-1-.33,1.69,1.69,0,0,1-.92-1.27,11.48,11.48,0,0,1-.09-1.44c0-2.52-.07-5.05-.07-7.57,0-1.26,0-2.53.15-3.78a12.14,12.14,0,0,1,1.45-5,7.34,7.34,0,0,1,3.81-3.41,9.33,9.33,0,0,1,6.36-.18,6.72,6.72,0,0,1,3.08,2.12C48.48,249,48.79,249.41,49.13,249.83Z"/><path d="M337.54,81.22a16.83,16.83,0,0,1-5.85-1.08,25.21,25.21,0,0,1-5.33-2.58,15.51,15.51,0,0,1-3.18-2.64,12.12,12.12,0,0,1-3.05-6.59,17.6,17.6,0,0,1,.52-6.78A31.16,31.16,0,0,1,324,53.41a20.2,20.2,0,0,1,3.54-4.53,14.3,14.3,0,0,1,6.56-3.58,14.88,14.88,0,0,1,3.76-.34,16.71,16.71,0,0,1,4.6.76A26,26,0,0,1,348,48.17a16.37,16.37,0,0,1,3.54,2.76,12.05,12.05,0,0,1,3.39,7.19,18.1,18.1,0,0,1-.55,6.6,30.55,30.55,0,0,1-3.26,8,20.8,20.8,0,0,1-3,4,14.41,14.41,0,0,1-6,3.84A12.44,12.44,0,0,1,337.54,81.22Z"/><path d="M428.73,133.83c.06.35.11.71.18,1.06a7.59,7.59,0,0,1-1.63,6.42,9.9,9.9,0,0,1-4.64,3.29,9.1,9.1,0,0,1-6.36-.1,14.09,14.09,0,0,1-3.86-2.28,21.47,21.47,0,0,1-3.37-3.5c-1.88-2.41-3.74-4.85-5.6-7.28a3.32,3.32,0,0,1-.7-1.24,1.84,1.84,0,0,1,.43-1.84,10.4,10.4,0,0,1,1.23-1.06l10.13-7.81,12.14-9.33a15.07,15.07,0,0,1,1.32-.94,2,2,0,0,1,2.48.28,7.77,7.77,0,0,1,.7.82c1.72,2.24,3.45,4.47,5.16,6.72a22.67,22.67,0,0,1,2.32,3.64,13.54,13.54,0,0,1,1.13,3.22,7.32,7.32,0,0,1-1.33,6.13,9.28,9.28,0,0,1-3.43,2.85,6.87,6.87,0,0,1-4.2.7c-.29-.05-.59-.07-.89-.11-.24-.21-.57-.17-.84-.3l-.13,0h-.13C428.43,133.3,428.67,133.58,428.73,133.83Z"/><path d="M426.46,348.84a16.09,16.09,0,0,1,1-5.63c.41-1.06.87-2.11,1.37-3.13,1.2-2.42,2.43-4.82,3.66-7.23a9.88,9.88,0,0,1,.61-1.1,2,2,0,0,1,2.51-.8,10.73,10.73,0,0,1,1.14.54l25.37,12.85a10.74,10.74,0,0,1,1.11.6,1.94,1.94,0,0,1,.88,2.34,3.54,3.54,0,0,1-.34.83c-1.35,2.68-2.69,5.37-4.08,8a29.87,29.87,0,0,1-1.79,2.91,11.73,11.73,0,0,1-2.44,2.63,8.44,8.44,0,0,1-3.18,1.63,7.31,7.31,0,0,1-3.91-.11,9.49,9.49,0,0,1-3.35-1.7,6.89,6.89,0,0,1-2.62-4.18c-.09-.47-.19-.94-.3-1.4a.17.17,0,0,0-.29-.07c-.38.29-.73.62-1.12.9a7.92,7.92,0,0,1-7.34,1.19,9.79,9.79,0,0,1-3.33-1.76,8.75,8.75,0,0,1-3.49-6.25C426.52,349.51,426.49,349.09,426.46,348.84Z"/><path d="M373,63.44a13.88,13.88,0,0,1,5.45,1A23.45,23.45,0,0,1,386.59,70a13.58,13.58,0,0,1,2.6,3.65,12.06,12.06,0,0,1,1.15,6.48,17.58,17.58,0,0,1-1.43,5.37,30.63,30.63,0,0,1-5.34,8.29A19.21,19.21,0,0,1,379,97.52a13.78,13.78,0,0,1-7.74,2,15.24,15.24,0,0,1-5.23-1.22A24,24,0,0,1,358.21,93a13.54,13.54,0,0,1-2.76-4,11.43,11.43,0,0,1-1-4.35,14.79,14.79,0,0,1,1-5.82,30,30,0,0,1,6.73-10.55,17,17,0,0,1,4.15-3.14A13.19,13.19,0,0,1,373,63.44Z"/><path d="M202.31,37.63a13.77,13.77,0,0,1,3.5.54A8.05,8.05,0,0,1,210.44,42a11.41,11.41,0,0,1,1.49,5,8.4,8.4,0,0,1-2.44,6.55c-.37.39-.78.75-1.15,1.13,0,0,0,.24.06.29a1.66,1.66,0,0,0,.47.26,8.77,8.77,0,0,1,3.14,2c.56.54,1.1,1.12,1.6,1.71,1.61,1.94,3.22,3.89,4.81,5.84a20.06,20.06,0,0,1,1.26,1.76,2.22,2.22,0,0,1,.29.83.81.81,0,0,1-.32.8,4,4,0,0,1-.76.46,26.78,26.78,0,0,1-4.3,1.34,4.17,4.17,0,0,1-.71.07,1.7,1.7,0,0,1-1.57-.69c-1.44-1.85-2.88-3.69-4.34-5.53-.64-.8-1.29-1.58-2-2.35a13.74,13.74,0,0,0-1.15-1.14,4.46,4.46,0,0,0-4.18-1.09c-.58.13-1.15.33-1.72.51a.55.55,0,0,0-.31.59c0,.23.1.47.16.7q1.44,4.92,2.89,9.84c.13.46.27.92.39,1.38a1.07,1.07,0,0,1-.41,1.12,2.42,2.42,0,0,1-.6.4A14.8,14.8,0,0,1,197,75a5.43,5.43,0,0,1-.9,0,1.08,1.08,0,0,1-1.11-.75c-.11-.28-.21-.57-.29-.85q-4.16-14.16-8.3-28.33c-.12-.4-.25-.8-.33-1.21a2.12,2.12,0,0,1,1.4-2.59c.23-.09.46-.15.69-.22l9.16-2.67A20.81,20.81,0,0,1,202.31,37.63Z"/><path d="M59.29,153.38a16.05,16.05,0,0,1,1-5.37,25.09,25.09,0,0,1,5.63-9.14,12.62,12.62,0,0,1,2.48-2.08c1.57-.95,2-1,3.7-.24a9.54,9.54,0,0,1,2.44,1.53,2.37,2.37,0,0,1,.41.57.83.83,0,0,1-.11.85,9.36,9.36,0,0,1-1,.74,19.61,19.61,0,0,0-4.17,3.42,14.33,14.33,0,0,0-3.45,6,9.67,9.67,0,0,0,.93,7.49,11.34,11.34,0,0,0,2.51,3.05,16.86,16.86,0,0,0,7.3,3.74,10.92,10.92,0,0,0,4.3.09,8.55,8.55,0,0,0,4.31-2.14,11.31,11.31,0,0,0,3.72-6.82.85.85,0,0,0-.41-.92l-.15-.1-5.84-3.22a.54.54,0,0,0-.63.19c-.73,1.31-1.46,2.63-2.2,3.94-.23.41-.47.83-.72,1.24a.83.83,0,0,1-.77.37,2.63,2.63,0,0,1-.89-.13A9,9,0,0,1,75,155a1.49,1.49,0,0,1-.43-.57,1.1,1.1,0,0,1-.07-.69,4.75,4.75,0,0,1,.44-1c1.59-2.89,3.2-5.78,4.8-8.67.14-.26.3-.52.45-.78a1.75,1.75,0,0,1,1.84-.85,3.79,3.79,0,0,1,1,.3,10,10,0,0,1,1.12.59L94.41,149a12.11,12.11,0,0,1,1.37.86,1.87,1.87,0,0,1,.81,1.71,10.54,10.54,0,0,1-.12,1.26,29.61,29.61,0,0,1-4.28,10.82,20,20,0,0,1-3.35,4,15.1,15.1,0,0,1-6.22,3.51,14.25,14.25,0,0,1-6.06.36,23,23,0,0,1-12-5.87,16.48,16.48,0,0,1-2.59-3A15.21,15.21,0,0,1,59.29,153.38Z"/><path d="M56.79,171.73a10.7,10.7,0,0,1,5.67,2.42,8.05,8.05,0,0,1,2.74,4.35,15.14,15.14,0,0,1,.39,2.3.31.31,0,0,0,.4.2l.16-.08a10.26,10.26,0,0,1,5.25-1.71l3.59-.28,3.24-.21c1-.06,2-.1,3.06-.13a5.45,5.45,0,0,1,.9.06,1.11,1.11,0,0,1,1,1.24,3.76,3.76,0,0,1-.14.88c-.42,1.25-.85,2.5-1.31,3.74a3.94,3.94,0,0,1-.52.94,1.43,1.43,0,0,1-1.2.69l-.54,0c-2.71.12-5.41.24-8.11.34a19.29,19.29,0,0,0-3,.38,4.47,4.47,0,0,0-3.56,3c-.2.57-.4,1.14-.59,1.7a.38.38,0,0,0,.23.43c.28.12.55.24.83.34l9.85,3.51,1,.37a1.25,1.25,0,0,1,.81,1.27,10,10,0,0,1-.19,1.07,14.22,14.22,0,0,1-1.3,3.54,5.3,5.3,0,0,1-.51.73,1,1,0,0,1-1,.35,11,11,0,0,1-1.38-.42l-17.82-6.32L45.26,193a12.9,12.9,0,0,1-1.35-.51,1.93,1.93,0,0,1-1.19-2.35,4.27,4.27,0,0,1,.22-.87c1.09-3.06,2.17-6.11,3.28-9.16a18.25,18.25,0,0,1,1.7-3.57,12.73,12.73,0,0,1,2.44-2.88A8.77,8.77,0,0,1,56.79,171.73Z"/><path d="M326.62,470.47a12.49,12.49,0,0,1-3-.31,7.4,7.4,0,0,1-4.21-2.91,9.16,9.16,0,0,1-1.77-6.62,8.26,8.26,0,0,1,.62-2.25,12.94,12.94,0,0,1,1.51-2.66l1-1.3c.17-.24.1-.49-.14-.56-.53-.13-1.05-.25-1.57-.39a10.18,10.18,0,0,1-2.65-1.13,7.89,7.89,0,0,1-3-3.24,9.68,9.68,0,0,1-1.05-5.59,8,8,0,0,1,1.33-3.5,10.12,10.12,0,0,1,2.2-2.37,14.45,14.45,0,0,1,2.89-1.81,23.84,23.84,0,0,1,4.4-1.59,13.24,13.24,0,0,1,4.65-.29,6.5,6.5,0,0,1,3.59,1.54,8.37,8.37,0,0,1,3,5.74,9.08,9.08,0,0,1-1,5.07c-.43.85-1,1.65-1.46,2.47a.28.28,0,0,0,.18.41c.41.1.81.21,1.22.3a14.16,14.16,0,0,1,2.92.92,8.54,8.54,0,0,1,5.1,5.92,8.74,8.74,0,0,1-2.48,9.07,15.69,15.69,0,0,1-1.66,1.37,10.84,10.84,0,0,1-1.37.86,24.07,24.07,0,0,1-7.43,2.68A18,18,0,0,1,326.62,470.47Z"/><path d="M417.73,100.52a7.4,7.4,0,0,1-1.07,4,11.1,11.1,0,0,1-3.85,4,8.09,8.09,0,0,1-6.4,1c-.58-.14-1.16-.31-1.74-.46-.15,0-.33.16-.31.33.08.59.19,1.18.22,1.78a11.07,11.07,0,0,1-.43,3,4.54,4.54,0,0,1-.21.69q-1.67,4.56-3.35,9.12a8.84,8.84,0,0,1-.78,1.41.92.92,0,0,1-1,.27,2.59,2.59,0,0,1-.65-.31,23.12,23.12,0,0,1-3.55-3.3,2.67,2.67,0,0,1-.32-.43,1.49,1.49,0,0,1-.2-1.21,9.51,9.51,0,0,1,.36-1c.81-2.06,1.63-4.13,2.43-6.2.34-.89.62-1.81,1-2.71a8.13,8.13,0,0,0,.42-1.93,4.21,4.21,0,0,0-1.06-3.5c-.48-.54-1-1-1.55-1.51-.27-.26-.5-.24-.77,0s-.58.61-.87.91l-6.81,7.21c-.2.21-.41.44-.62.65-.64.64-1,.72-1.75.26a12.4,12.4,0,0,1-3.75-3.57,2.16,2.16,0,0,1-.22-.49.76.76,0,0,1,.09-.69,9.34,9.34,0,0,1,.81-1l5.19-5.5,14.73-15.58c.41-.44.82-.88,1.27-1.28a2,2,0,0,1,2.49-.08,9.17,9.17,0,0,1,.82.7q3.21,3,6.41,6.07c.69.66,1.36,1.36,2,2.08a14.14,14.14,0,0,1,2.38,3.8A8.81,8.81,0,0,1,417.73,100.52Z"/><path d="M62.51,326.39l-11.88-.52c-1.38-.06-2.77-.14-4.15-.12A2.41,2.41,0,0,1,43.9,324a53.71,53.71,0,0,1-1.67-5.69,2,2,0,0,1,.88-2.2l4.8-3.5L68.3,297.71c.53-.38,1.07-.77,1.62-1.13a6,6,0,0,1,.79-.43,1.18,1.18,0,0,1,1.56.49,1.91,1.91,0,0,1,.16.32,26.79,26.79,0,0,1,1.39,4.46,4.77,4.77,0,0,1,.06,1.07,1,1,0,0,1-.35.8c-.37.31-.75.6-1.14.88l-4,2.82a4.65,4.65,0,0,0-.71.55.64.64,0,0,0-.16.48,4.51,4.51,0,0,0,.21.88q1.45,4.82,2.92,9.64c.09.29.18.58.29.85a.66.66,0,0,0,.56.4l1.08.06,4.32.08,1.26,0a1.54,1.54,0,0,1,1.34.79,3.54,3.54,0,0,1,.26.47A20.26,20.26,0,0,1,81,325.17c.24,1.15-.2,1.69-1.39,1.8a13.61,13.61,0,0,1-1.43,0c-1.32,0-2.65-.09-4-.15l-11.7-.46Z"/><path d="M61.9,362.93a1.74,1.74,0,0,1-1.58-.69,3.87,3.87,0,0,1-.43-.57,52.76,52.76,0,0,1-2.63-5.13,2.23,2.23,0,0,1,.54-2.77c.91-.87,1.75-1.82,2.62-2.74l18.89-19.86A20,20,0,0,1,81,329.54c.64-.52,1.28-.7,2,.32a26,26,0,0,1,2.31,4.48,2.29,2.29,0,0,1,.14.7,1.26,1.26,0,0,1-.31,1c-.33.36-.65.71-1,1L80.36,341a.62.62,0,0,0-.15.81c.18.31.32.64.48,1l4.37,8.5c.17.32.33.64.52.94a.63.63,0,0,0,.61.31c.42,0,.84-.07,1.26-.14,1.72-.29,3.43-.57,5.15-.88a1.7,1.7,0,0,1,1.75.65,5.21,5.21,0,0,1,.52.74c.51.95,1,1.92,1.49,2.88a2.35,2.35,0,0,1,.27,1.22,1,1,0,0,1-.53.88,3.48,3.48,0,0,1-.83.32q-1.06.21-2.13.36l-9.82,1.4-8.93,1.23-8.74,1.26C64.41,362.6,63.15,362.76,61.9,362.93Z"/><path d="M439.22,315.59A20.57,20.57,0,0,1,442.38,305a11.85,11.85,0,0,1,2.75-3.07,10.43,10.43,0,0,1,5.8-2.21,15.14,15.14,0,0,1,5.52.61l10.16,3.1,9.29,2.87c.4.12.8.24,1.19.4a1.16,1.16,0,0,1,.7,1,2,2,0,0,1,0,.54,14.89,14.89,0,0,1-1.37,4.46,3.31,3.31,0,0,1-.51.73,1,1,0,0,1-1,.32c-.87-.25-1.73-.51-2.59-.78L456,307.93a14.07,14.07,0,0,0-3.34-.69,7.93,7.93,0,0,0-2.33.18,5.6,5.6,0,0,0-3.1,2.05,8.56,8.56,0,0,0-1.75,5,5.58,5.58,0,0,0,1.56,4.1,7.26,7.26,0,0,0,2.49,1.75,17.1,17.1,0,0,0,1.85.69l17.72,5.46c.52.16,1,.31,1.55.49a1.16,1.16,0,0,1,.83,1.24,7.45,7.45,0,0,1-.12,1.25,14.23,14.23,0,0,1-1.13,3.41,6.18,6.18,0,0,1-.37.61,1.17,1.17,0,0,1-1.26.5c-.23-.06-.45-.15-.68-.22L449,327.94a19,19,0,0,1-3.49-1.44,13.33,13.33,0,0,1-3-2.25,10.91,10.91,0,0,1-3.25-7.22C439.19,316.55,439.22,316.07,439.22,315.59Z"/><path d="M452.81,143.91c1.05-.07,1.59.14,2,.67a6.17,6.17,0,0,1,.52.74c.81,1.47,1.61,3,2.38,4.44a5.4,5.4,0,0,1,.41,1.19,1.62,1.62,0,0,1-.33,1.52c-.27.32-.55.64-.84.95q-10.29,11.24-20.58,22.47c-.4.44-.82.87-1.24,1.3a6.13,6.13,0,0,1-.69.57,1.15,1.15,0,0,1-1.48-.15,5.26,5.26,0,0,1-.64-.87c-.61-1.11-1.2-2.22-1.78-3.34a5.44,5.44,0,0,1-.28-.66,1.67,1.67,0,0,1,.38-1.83c.83-.87,1.65-1.75,2.47-2.63l2-2.1a.76.76,0,0,0,.09-1q-2.65-4.92-5.29-9.84c-.06-.1-.13-.2-.2-.3a.61.61,0,0,0-.59-.32c-.48.05-1,.11-1.43.2-1.53.28-3.07.54-4.6.87a2.18,2.18,0,0,1-2.59-1.1,26.56,26.56,0,0,1-1.9-3.67,1.2,1.2,0,0,1,.73-1.6,7.53,7.53,0,0,1,1.39-.38c2.37-.39,4.74-.76,7.12-1.14l8-1.29,7.65-1.23,8-1.28Z"/><path d="M313.11,462.73a24.18,24.18,0,0,1-.45,5.12,12.43,12.43,0,0,1-6.61,8.75,17.65,17.65,0,0,1-5.1,1.72,16.92,16.92,0,0,1-3.76.33,12,12,0,0,1-2.14-.28,1.93,1.93,0,0,1-1.35-1.1,3.7,3.7,0,0,1-.19-.5,14.74,14.74,0,0,1-.6-2.63,1.36,1.36,0,0,1,0-.53,1,1,0,0,1,.67-.78,3.8,3.8,0,0,1,.88-.12c.48,0,1,.09,1.44.12a14.83,14.83,0,0,0,5.34-.62,7,7,0,0,0,2.39-1.22,6.78,6.78,0,0,0,2.46-4.08,9.71,9.71,0,0,0,.14-3.76c-.06-.35-.1-.71-.18-1.06,0,0-.23-.13-.29-.09-.36.22-.7.46-1,.71a13.32,13.32,0,0,1-5.61,2.3c-.42.08-.83.15-1.25.21a9.47,9.47,0,0,1-4.1-.3,7.48,7.48,0,0,1-4.15-3,11.1,11.1,0,0,1-1.27-2.38,16.73,16.73,0,0,1-1.31-6.66,10.9,10.9,0,0,1,.5-3,10,10,0,0,1,3.5-5.12,13.37,13.37,0,0,1,3.11-1.79,16.54,16.54,0,0,1,5.79-1.23,9.22,9.22,0,0,1,7.53,3.19,15,15,0,0,1,2.18,3.29,30.42,30.42,0,0,1,1.87,5.06,46.89,46.89,0,0,1,1.36,6.52C313.05,460.91,313.07,462.06,313.11,462.73Z"/><path d="M364.68,446.42a11.82,11.82,0,0,1-3.71,9.15,17.34,17.34,0,0,1-9.84,4.85,4.77,4.77,0,0,1-1.07,0,1.61,1.61,0,0,1-1.1-.55,9.54,9.54,0,0,1-1.7-3.15,2.09,2.09,0,0,1,0-.36.87.87,0,0,1,.49-.88,7,7,0,0,1,.85-.27c1-.24,2-.44,3-.71a12.14,12.14,0,0,0,3.57-1.67,6.66,6.66,0,0,0,2.73-3.47,7.46,7.46,0,0,0,.29-1.22,10,10,0,0,0-.49-4.61c-.19-.57-.45-1.11-.68-1.66-.06-.15-.3-.14-.43,0l-.79,1a13.84,13.84,0,0,1-7.73,4.66,7.69,7.69,0,0,1-7.74-2.28,15.51,15.51,0,0,1-4.06-7.51,10.24,10.24,0,0,1,2.86-9.92,15.38,15.38,0,0,1,7.64-4.18,8.83,8.83,0,0,1,6.6,1,13.4,13.4,0,0,1,3.06,2.5,23.54,23.54,0,0,1,2.43,3.12,44.88,44.88,0,0,1,4.24,8.13A20.71,20.71,0,0,1,364.68,446.42Z"/><path d="M172.45,84.91a1.88,1.88,0,0,1-1.73-1c-.21-.37-.39-.75-.56-1.13q-5.79-13-11.56-26c-.19-.44-.38-.88-.54-1.33a2,2,0,0,1,.79-2.38,11.57,11.57,0,0,1,1.45-.73l8.89-4,4.94-2.19a9.4,9.4,0,0,1,1-.39,1,1,0,0,1,1.15.32,4.09,4.09,0,0,1,.45.56,10.94,10.94,0,0,1,1.23,2.8,2.76,2.76,0,0,1,.08.71,1,1,0,0,1-.48.91,9.81,9.81,0,0,1-1.13.55l-7.9,3.52-1.32.58c-.69.33-.74.43-.45,1.09.82,1.87,1.65,3.73,2.48,5.6.08.16.15.32.24.49a.55.55,0,0,0,.61.25c.39-.15.78-.3,1.16-.47l6.59-2.92,1-.44a1.17,1.17,0,0,1,1.58.45,8.18,8.18,0,0,1,1.34,2.73,4.51,4.51,0,0,1,.21.88,1.12,1.12,0,0,1-.53,1.08,10,10,0,0,1-1.14.54l-6.91,3.08a7.23,7.23,0,0,0-1,.49c-.11.07-.15.3-.18.46a.7.7,0,0,0,.1.34c1.07,2.42,2.15,4.83,3.22,7.25,0,0,.05.11.08.16a.5.5,0,0,0,.62.18l7.25-3.2,3.3-1.46a1.13,1.13,0,0,1,1.45.34,3.11,3.11,0,0,1,.23.28,9.81,9.81,0,0,1,1.43,3.28,1.94,1.94,0,0,1,0,.54,1,1,0,0,1-.42.76,4.69,4.69,0,0,1-.8.42l-14.65,6.51A4.05,4.05,0,0,1,172.45,84.91Z"/><path d="M169.67,427.43a6.63,6.63,0,0,1,.85.21c.34.11.66.3,1,.44L185,434.14c.38.17.76.35,1.13.55a1.13,1.13,0,0,1,.55,1.23,9.47,9.47,0,0,1-1.51,3.44,2.42,2.42,0,0,1-.51.5.85.85,0,0,1-.85.16c-.39-.14-.77-.32-1.15-.5l-9-4.06c-.16-.08-.33-.14-.5-.21a.49.49,0,0,0-.61.19q-.21.4-.39.81L169.52,442a.46.46,0,0,0,.16.48c.21.11.42.23.64.33l3.77,1.7c1.37.61,2.75,1.22,4.11,1.85a1.38,1.38,0,0,1,1,1.86,8.4,8.4,0,0,1-1.44,3.07,1.76,1.76,0,0,1-.4.37.92.92,0,0,1-.84.18c-.51-.19-1-.41-1.5-.63-2.36-1-4.71-2.12-7.06-3.18a4.12,4.12,0,0,0-.67-.24.44.44,0,0,0-.31.12.84.84,0,0,0-.2.29c-1.12,2.46-2.23,4.93-3.34,7.39a.52.52,0,0,0,.24.75l.48.25,1.15.51,7.88,3.55.83.37a1.22,1.22,0,0,1,.84,1.58,8.33,8.33,0,0,1-1.55,3.41,1.28,1.28,0,0,1-1.61.41c-.34-.14-.66-.29-1-.44l-13.47-6.06c-.49-.23-1-.46-1.45-.72a2.06,2.06,0,0,1-.84-.91,1.6,1.6,0,0,1-.16-1.22,17.21,17.21,0,0,1,.66-1.68l5.32-11.82,6.21-13.8a12.07,12.07,0,0,1,.84-1.59A1.85,1.85,0,0,1,169.67,427.43Z"/><path d="M228.81,67.56a17.11,17.11,0,0,1-3.79-.45,11.65,11.65,0,0,1-2.35-.87,2.35,2.35,0,0,1-1.24-1.47,10.62,10.62,0,0,1-.44-3.92,2.14,2.14,0,0,1,.06-.35,1,1,0,0,1,1.09-.73,7.24,7.24,0,0,1,1.2.37,28.18,28.18,0,0,0,2.9,1,13.3,13.3,0,0,0,5.18.17,6,6,0,0,0,2.8-1.17,3.82,3.82,0,0,0,1.08-4.56,3.59,3.59,0,0,0-.76-1,5.17,5.17,0,0,0-1.66-1.06c-.72-.31-1.45-.57-2.19-.81-1.14-.37-2.31-.68-3.44-1.07a25.73,25.73,0,0,1-2.83-1.14,9.53,9.53,0,0,1-4.2-3.82A9.94,9.94,0,0,1,218.9,42a9.28,9.28,0,0,1,4.84-9,14.56,14.56,0,0,1,4.37-1.61,16.24,16.24,0,0,1,6.8,0,9.74,9.74,0,0,1,2.22.71,2,2,0,0,1,1.11,1.34,12.38,12.38,0,0,1,.45,3.92c0,.12,0,.24-.06.36a1,1,0,0,1-1,.66c-.47-.11-.93-.26-1.38-.41a16.42,16.42,0,0,0-3.65-.92,12.61,12.61,0,0,0-2.88.1,5,5,0,0,0-2.14.9,3.31,3.31,0,0,0-.38,4.79A5.17,5.17,0,0,0,228.86,44c.71.31,1.45.58,2.19.82,1.14.37,2.3.68,3.44,1a21.17,21.17,0,0,1,3.5,1.41,9.78,9.78,0,0,1,3.53,3A8.81,8.81,0,0,1,243,53.88a11.46,11.46,0,0,1,.09,4.29,10.14,10.14,0,0,1-2.77,5.35,11.84,11.84,0,0,1-3.69,2.53A18,18,0,0,1,228.81,67.56Z"/><path d="M194.8,437.69a17.12,17.12,0,0,1,10.38,3.69,9.45,9.45,0,0,1,1.27,1.26,1.77,1.77,0,0,1,.41,1.53,15.79,15.79,0,0,1-1.14,3.59.83.83,0,0,0-.09.16,1,1,0,0,1-1.65.34,12.46,12.46,0,0,1-.9-.88,17.57,17.57,0,0,0-2.35-2,9.67,9.67,0,0,0-3.63-1.51,4.63,4.63,0,0,0-2,.06,3.31,3.31,0,0,0-2.11,4.47,5.3,5.3,0,0,0,1.08,1.65c.58.6,1.18,1.19,1.8,1.76s1.46,1.25,2.16,1.91,1.46,1.43,2.17,2.17a9.53,9.53,0,0,1,1.47,2,8.89,8.89,0,0,1,1,6.6,10.87,10.87,0,0,1-3.84,6.34,10.4,10.4,0,0,1-4.93,2.07,16.94,16.94,0,0,1-9.8-1.68,16.49,16.49,0,0,1-3.64-2.31,8.89,8.89,0,0,1-1.6-1.7,2.13,2.13,0,0,1-.39-1.54,10.83,10.83,0,0,1,1.27-3.91,1.52,1.52,0,0,1,.36-.4,1,1,0,0,1,1-.1,4.16,4.16,0,0,1,.71.54c.47.46.89,1,1.36,1.43a13,13,0,0,0,5.53,3.27,7.87,7.87,0,0,0,2.85.25,3.54,3.54,0,0,0,3-2.07,5.9,5.9,0,0,0,.37-1,2.42,2.42,0,0,0,0-1.41,5.25,5.25,0,0,0-1.15-2c-.6-.66-1.24-1.3-1.9-1.91s-1.55-1.34-2.29-2a31.08,31.08,0,0,1-2.24-2.35,9.9,9.9,0,0,1-2.14-4.31,8.2,8.2,0,0,1-.13-3,11.32,11.32,0,0,1,1.52-4.4,9,9,0,0,1,6.53-4.35C193.71,437.8,194.37,437.74,194.8,437.69Z"/><path d="M465.2,246.41a25.61,25.61,0,0,1,7.89,1.08,17.4,17.4,0,0,1,5,2.44,14.31,14.31,0,0,1,5.94,9.92,17,17,0,0,1,0,5.38,15.37,15.37,0,0,1-1.53,4.78,10.19,10.19,0,0,1-.88,1.36,2.78,2.78,0,0,1-2,1.11,13.23,13.23,0,0,1-3.77-.13,2,2,0,0,1-.65-.28.89.89,0,0,1-.39-1.23c.24-.42.51-.81.78-1.21a15.26,15.26,0,0,0,1.63-3,9.76,9.76,0,0,0,.57-4.78A7,7,0,0,0,476,258a9.2,9.2,0,0,0-3.05-2.19,14.38,14.38,0,0,0-3.8-1.09,22.06,22.06,0,0,0-6.64,0,13.29,13.29,0,0,0-3.29.92,7.38,7.38,0,0,0-4.56,5.83,11.06,11.06,0,0,0,1,6.66c.28.6.64,1.16,1,1.74a7.53,7.53,0,0,1,.41.8,1,1,0,0,1-.71,1.37,5.93,5.93,0,0,1-.72.1,18.4,18.4,0,0,1-3.06,0,2.69,2.69,0,0,1-2.09-1.25,12.93,12.93,0,0,1-.78-1.41,13.89,13.89,0,0,1-1.3-4.48,19.66,19.66,0,0,1,.28-7.17,19.08,19.08,0,0,1,.79-2.57,12.73,12.73,0,0,1,5.92-6.56,16.72,16.72,0,0,1,5.26-1.79A20.91,20.91,0,0,1,465.2,246.41Z"/><path d="M292.63,38.67l-8.22-1c-.3,0-.6-.06-.9-.08a.57.57,0,0,0-.62.51c0,.12-.06.23-.08.35-.27,2.21-.54,4.41-.8,6.62a4.4,4.4,0,0,0,0,.89.4.4,0,0,0,.2.27,9,9,0,0,0,1.23.27l7.15.85c.54.07,1.07.17,1.61.26a1.15,1.15,0,0,1,.85.84,2.26,2.26,0,0,1,.1.53,10.46,10.46,0,0,1-.42,3.38,2.56,2.56,0,0,1-.32.64,1,1,0,0,1-.89.51c-.72,0-1.44-.08-2.16-.17l-7.14-.92c-.18,0-.36,0-.54,0a.55.55,0,0,0-.55.37,3.13,3.13,0,0,0-.12.53c-.29,2.38-.57,4.77-.85,7.15-.14,1.19-.28,2.39-.44,3.58a6.32,6.32,0,0,1-.22,1.05.89.89,0,0,1-.61.62,4,4,0,0,1-1.23.22,15,15,0,0,1-4.26-.61,3,3,0,0,1-.65-.32,1,1,0,0,1-.51-.89,13.9,13.9,0,0,1,.08-1.44c.3-2.38.63-4.76.92-7.15s.56-4.77.85-7.15.62-4.88.93-7.33c.15-1.25.31-2.5.46-3.75s.29-2.63.45-3.94a7.2,7.2,0,0,1,.28-1.22,1.92,1.92,0,0,1,1.75-1.35,7.63,7.63,0,0,1,1.43.08l5,.62,7.15.9c.83.1,1.67.17,2.51.29,1.25.18,1.6.62,1.62,1.92a12.44,12.44,0,0,1-.42,3,2.7,2.7,0,0,1-.31.64,1.1,1.1,0,0,1-1,.59c-.42,0-.84-.1-1.26-.15Z"/><path d="M146,76.2c-.16-.87-.33-1.82-.49-2.76-.2-1.13-.4-2.25-.57-3.38-.36-2.49-.69-5-1-7.49a1.9,1.9,0,0,1,.52-1.65,4,4,0,0,1,.53-.48,25.41,25.41,0,0,1,4-2.45,4.29,4.29,0,0,1,.5-.19,1,1,0,0,1,1.15.63,22.27,22.27,0,0,1,.39,2.31c.25,2.33.46,4.66.68,7,.16,1.8.31,3.59.47,5.39.24,2.51.47,5,.73,7.53a2.34,2.34,0,0,0,.29.84c.22.42.49.82.75,1.23,1.69,2.7,3.37,5.4,5.07,8.09a1.51,1.51,0,0,1-.33,2.35A14.75,14.75,0,0,1,155,95.45a3.66,3.66,0,0,1-.86.24,1.06,1.06,0,0,1-1.11-.43c-.28-.4-.53-.8-.79-1.21-1.66-2.65-3.33-5.29-5-8a5.09,5.09,0,0,0-1.78-1.73c-5.45-3.28-10.88-6.6-16.32-9.91-.51-.31-1-.63-1.52-1a4.69,4.69,0,0,1-.63-.63.79.79,0,0,1,0-.85,3.92,3.92,0,0,1,.73-.79,27.28,27.28,0,0,1,3.81-2.38,4.66,4.66,0,0,1,.66-.28,2.05,2.05,0,0,1,1.74.2c.31.18.61.38.91.58,2.4,1.6,4.81,3.18,7.2,4.79,1.19.81,2.35,1.67,3.54,2.49a.61.61,0,0,0,.33,0s0-.11.05-.17S146,76.34,146,76.2Z"/><path d="M92.84,103.12a4.08,4.08,0,0,1,.36-.86,6.14,6.14,0,0,1,.83-.94L104.3,91c.17-.17.34-.34.52-.5a1.19,1.19,0,0,1,1.33-.19,4.23,4.23,0,0,1,.62.37,10.6,10.6,0,0,1,2,2,6,6,0,0,1,.5.94.81.81,0,0,1-.12.85,9.37,9.37,0,0,1-.85.93c-1.94,2-3.89,3.93-5.83,5.89-.3.3-.58.61-.86.92a.46.46,0,0,0,0,.5s.06.11.1.15l5.62,5.59a.54.54,0,0,0,.8,0l.64-.64c1-1,2-2,3-3.07l2.8-2.81a4.73,4.73,0,0,1,.68-.58.69.69,0,0,1,.68-.1,4.65,4.65,0,0,1,.81.39,10.07,10.07,0,0,1,2.28,2.28,4.36,4.36,0,0,1,.37.82.67.67,0,0,1-.11.68,8.82,8.82,0,0,1-.7.81l-5.45,5.5-.89.9a.51.51,0,0,0,0,.78l2.3,2.3,5.63,5.58a7.66,7.66,0,0,1,.73.78,1,1,0,0,1,.16.86,2.41,2.41,0,0,1-.27.66,12.56,12.56,0,0,1-3.55,3.53,1.83,1.83,0,0,1-.49.23.91.91,0,0,1-.86-.12,13.84,13.84,0,0,1-1.06-1l-14.59-14.45-6.14-6.09c-.34-.34-.66-.69-1-1.06A2,2,0,0,1,92.84,103.12Z"/><path d="M265.69,478.59c0-.31,0-.67.07-1a1.2,1.2,0,0,1,1-1.1c.65-.1,1.31-.18,2-.24s1.56-.1,2.33-.23c.57-.1,1.31.14,1.68-.42s0-1-.08-1.57q-.41-4.67-.84-9.33c-.17-1.79-.37-3.58-.56-5.37-.16-1.55-.31-3.1-.47-4.65a.3.3,0,0,0-.38-.25c-.16.09-.32.16-.47.26l-1.34.92c-.84.58-1.67,1.17-2.52,1.72a5.9,5.9,0,0,1-1.13.55,1,1,0,0,1-1.29-.65c-.16-.69-.26-1.41-.39-2.12,0-.05,0-.12,0-.18a2.7,2.7,0,0,1,1.19-2.8c2.1-1.6,4.16-3.26,6.22-4.91a3.35,3.35,0,0,1,1.61-.74,21.35,21.35,0,0,1,4.3-.29l.18,0a.93.93,0,0,1,.82.82c.11,1,.21,1.91.3,2.87.17,1.67.31,3.34.47,5L279,461c.14,1.43.29,2.87.42,4.3.16,1.79.31,3.59.48,5.38.12,1.31.27,2.63.4,3.94a.51.51,0,0,0,.5.43l1.61-.14c1.08-.08,2.15-.19,3.23-.25a1.07,1.07,0,0,1,1.15.69,6.87,6.87,0,0,1,.43,4,1.17,1.17,0,0,1-.2.5,2,2,0,0,1-.54.46,1.23,1.23,0,0,1-.51.12l-8.43.8c-1.73.16-3.46.35-5.19.52l-4.66.46h-.18a1.25,1.25,0,0,1-1.28-.81,10.87,10.87,0,0,1-.41-1.56A10.64,10.64,0,0,1,265.69,478.59Z"/><path d="M219.83,479.73a17.21,17.21,0,0,1-3.69-.73,3,3,0,0,1-.65-.31,1.09,1.09,0,0,1-.59-1c0-.35.08-.71.14-1.07l1.29-8c.43-2.61.86-5.21,1.28-7.82s.84-5.21,1.25-7.82q.18-1.06.33-2.13a.53.53,0,0,0-.39-.53l-4.8-.79c-.95-.15-1.9-.29-2.84-.46a1.16,1.16,0,0,1-1-1.11,9.07,9.07,0,0,1,.56-4.06,2.73,2.73,0,0,1,.27-.47.9.9,0,0,1,.75-.43,7.44,7.44,0,0,1,1.25.09l7.46,1.22c2.49.41,5,.82,7.47,1.21l7.46,1.18c1.19.2,1.51.61,1.52,1.83a11,11,0,0,1-.48,3,3.31,3.31,0,0,1-.38.81,1,1,0,0,1-.89.52,14.39,14.39,0,0,1-1.61-.16l-5.51-.92a5.27,5.27,0,0,0-.89-.09.44.44,0,0,0-.43.27,3,3,0,0,0-.17.5c-.4,2.49-.79,5-1.19,7.47l-1.23,7.64c-.43,2.67-.87,5.33-1.3,8-.15.94-.28,1.9-.45,2.84a1.43,1.43,0,0,1-1.44,1.34C220.68,479.75,220.44,479.73,219.83,479.73Z"/><path d="M447.22,221.15a2.87,2.87,0,0,1-.47,0,1.08,1.08,0,0,1-.95-.72,12,12,0,0,1-.34-1.21q-1.59-6.65-3.16-13.31a8.86,8.86,0,0,1-.23-1.78,1.77,1.77,0,0,1,1.14-1.69,7,7,0,0,1,1.2-.38l18.21-4.34L473.83,195a5.44,5.44,0,0,1,.7-.15.9.9,0,0,1,.81.31,2.82,2.82,0,0,1,.51.73,13.89,13.89,0,0,1,1.13,4.7,2.7,2.7,0,0,1-.14.88.77.77,0,0,1-.45.53,4.21,4.21,0,0,1-.84.3L460.14,206l-9.46,2.24c-.29.07-.58.17-.86.26a.48.48,0,0,0-.34.55l.42,1.76q.93,3.84,1.85,7.7a3.09,3.09,0,0,1,.09.53,1,1,0,0,1-.32.81,2.62,2.62,0,0,1-.57.42A10.46,10.46,0,0,1,447.22,221.15Z"/><path d="M36,290.92c.05-.36.06-.72.14-1.07a1.15,1.15,0,0,1,1-1c1.3-.21,2.61-.43,3.91-.62l6.78-1c2.85-.41,5.71-.81,8.56-1.23L63.63,285a.56.56,0,0,0,.48-.64c0-.48-.09-1-.16-1.43-.32-2.2-.65-4.4-1-6.6-.09-.59-.2-1.18-.28-1.78a1.26,1.26,0,0,1,.74-1.32l.16-.08a10.63,10.63,0,0,1,3.71-.62,2.68,2.68,0,0,1,.87.2.87.87,0,0,1,.6.62,10.83,10.83,0,0,1,.27,1.23c.41,2.8.8,5.59,1.21,8.39.27,1.9.56,3.8.84,5.7a6.12,6.12,0,0,1,.11.71,2.12,2.12,0,0,1-1.47,2.23,5.28,5.28,0,0,1-.87.22c-1.72.26-3.45.52-5.17.76-2,.29-4.05.57-6.07.87l-9.27,1.37-8.55,1.29a18.68,18.68,0,0,1-2,.16.82.82,0,0,1-.75-.43,4.27,4.27,0,0,1-.4-.8A18.76,18.76,0,0,1,36,290.92Z"/><path d="M469.13,176.1a1.15,1.15,0,0,1-.75,1c-.95.37-1.91.72-2.87,1.07l-21.16,7.7-1,.37c-.57.22-.68.42-.51.94.1.29.21.57.31.85q1.35,3.74,2.69,7.45c.13.34.25.68.35,1a1.11,1.11,0,0,1-.44,1.28,8.38,8.38,0,0,1-4.18,1.49h-.18a1.14,1.14,0,0,1-1-.65c-.1-.22-.19-.44-.27-.67q-2.46-6.77-4.92-13.54a6.14,6.14,0,0,1-.34-1.39,1.86,1.86,0,0,1,1-1.94,13,13,0,0,1,1.49-.63l13.7-5,13.55-4.92c.45-.17.9-.34,1.35-.49a.85.85,0,0,1,.84.19,2.92,2.92,0,0,1,.6.67,14.21,14.21,0,0,1,1.72,4.71A4.13,4.13,0,0,1,469.13,176.1Z"/><path d="M482.17,283.6a13.93,13.93,0,0,1-.68,3.54,3.52,3.52,0,0,1-.38.81,1.07,1.07,0,0,1-1.08.52c-1.6-.23-3.2-.49-4.8-.74l-8.18-1.29-8.19-1.29c-1.71-.27-3.43-.55-5.15-.81a1.35,1.35,0,0,0-.53,0,.4.4,0,0,0-.27.2,6.33,6.33,0,0,0-.26,1c-.42,2.67-.82,5.34-1.23,8-.07.41-.15.83-.26,1.23a1,1,0,0,1-.75.71,3,3,0,0,1-.88.14,11.64,11.64,0,0,1-3.36-.6,3.67,3.67,0,0,1-.48-.25,1.13,1.13,0,0,1-.59-1.21c.14-.95.3-1.9.44-2.84.32-2,.63-4,.95-6s.67-4.15,1-6.22a3.29,3.29,0,0,1,.12-.71,2,2,0,0,1,2-1.54,12.34,12.34,0,0,1,1.61.13l7.83,1.25,8,1.23,7.82,1.23,6.23,1a1.27,1.27,0,0,1,1,1.1,2,2,0,0,1,0,.35C482.18,282.77,482.17,283,482.17,283.6Z"/><path d="M306.16,34.94a13.16,13.16,0,0,1,4.38,1.14,2.9,2.9,0,0,1,.6.38,1,1,0,0,1,.41.95,6.54,6.54,0,0,1-.18.88q-3.08,12.23-6.14,24.46c-.08.35-.14.7-.2,1.06a.39.39,0,0,0,.22.44,4.29,4.29,0,0,0,.85.3l8.56,2.16a4.11,4.11,0,0,1,.68.21.9.9,0,0,1,.54.67,2.41,2.41,0,0,1,.07.53A9.09,9.09,0,0,1,315,72a2.37,2.37,0,0,1-.43.57,1,1,0,0,1-.81.31,5.47,5.47,0,0,1-.7-.16c-4.61-1.15-9.21-2.29-13.81-3.45a12,12,0,0,1-1.21-.34,2,2,0,0,1-1.4-2.24,8.84,8.84,0,0,1,.22-1.25q2.53-10.12,5.08-20.26l2-7.86c.09-.35.2-.69.27-1C304.47,35,305,34.93,306.16,34.94Z"/><path d="M134.28,110a1.55,1.55,0,0,1-1.11-.43,13.72,13.72,0,0,1-1.09-1.2c-1.57-2-3.12-4-4.68-6L114.14,85.6c-.3-.38-.59-.75-.87-1.15a1.24,1.24,0,0,1,0-1.36,3,3,0,0,1,.22-.28,13.84,13.84,0,0,1,3.79-3,4.42,4.42,0,0,1,.67-.25.84.84,0,0,1,.84.18,8.85,8.85,0,0,1,.95,1.08q4.24,5.37,8.48,10.76L135,100.2c.26.33.53.66.8,1a.44.44,0,0,0,.64,0c.29-.22.58-.43.86-.66l6.38-5a7.7,7.7,0,0,1,.87-.63,1.07,1.07,0,0,1,1,0,2.4,2.4,0,0,1,.59.41A9.9,9.9,0,0,1,148.27,98a2.79,2.79,0,0,1,.26.85.85.85,0,0,1-.27.82c-.22.21-.44.4-.68.59l-11.2,8.8c-.33.25-.68.49-1,.72A1.91,1.91,0,0,1,134.28,110Z"/><path class="cls-37" d="M239.63,473.49c.55.06,1.09.08,1.62.18a5.82,5.82,0,0,1,1.35.46,2.11,2.11,0,0,1,1.13,1.33,6.27,6.27,0,0,1,.31,1.77,12.46,12.46,0,0,1-.39,2.85,2.84,2.84,0,0,1-.28.65A2.21,2.21,0,0,1,241.9,482a9.61,9.61,0,0,1-1.59.27,7.26,7.26,0,0,1-2.66-.36,2.62,2.62,0,0,1-1.94-2.14,8.84,8.84,0,0,1,.24-4.09,2.56,2.56,0,0,1,2.43-2.05Z"/><path class="cls-38" d="M428.73,133.83a.64.64,0,0,1-.26-.74c0-.16.1-.15.37,0C428.8,133.35,428.76,133.59,428.73,133.83Z"/><path class="cls-38" d="M429.1,133.17a.87.87,0,0,1,.84.3A.7.7,0,0,1,429.1,133.17Z"/><path class="cls-39" d="M421.58,255.64c0,90.65-73.65,164.93-165,164.91-91,0-164.94-74-164.9-165s74.08-165,165.2-164.91S421.6,165.05,421.58,255.64Z"/><path class="cls-36" d="M55.83,230.62a26.38,26.38,0,0,1-7.27-1.18,14.29,14.29,0,0,1-2.65-1.11,8.91,8.91,0,0,1-2.52-2,7,7,0,0,1-1.77-4.24,11.08,11.08,0,0,1,.64-4.6,7,7,0,0,1,5.31-4.63,13,13,0,0,1,3.94-.29,30.44,30.44,0,0,1,6.2,1,17,17,0,0,1,2.69,1,10,10,0,0,1,2.53,1.71,7.17,7.17,0,0,1,2.34,5.1,11.67,11.67,0,0,1-.82,4.75,6.63,6.63,0,0,1-4.35,4A13.4,13.4,0,0,1,55.83,230.62Z"/><path class="cls-40" d="M57.77,261.93H53.64a.57.57,0,0,1-.56-.58,30.48,30.48,0,0,1,.15-5.73,6,6,0,0,1,.72-2,3.84,3.84,0,0,1,2.36-1.81,5,5,0,0,1,2.83-.06,4,4,0,0,1,2.49,1.91,4.94,4.94,0,0,1,.69,2.39c0,1.74,0,3.48.08,5.21,0,.06,0,.12,0,.18a.5.5,0,0,1-.47.45H57.77Z"/><path class="cls-41" d="M43.16,262.08h-3.6a.59.59,0,0,1-.58-.57,24.16,24.16,0,0,1,.12-4.5,6.66,6.66,0,0,1,.17-.89,3.41,3.41,0,0,1,3.12-2.57,8,8,0,0,1,1.62,0,3.63,3.63,0,0,1,3.14,2.61,10.27,10.27,0,0,1,.31,1.58,4.87,4.87,0,0,1,0,.54c.07,2.74,0,3.47-.2,3.54a15.49,15.49,0,0,1-3.4.17c-.24,0-.48,0-.72,0Z"/><path class="cls-36" d="M347.46,59.34a23,23,0,0,1-.31,2.52A26,26,0,0,1,343.86,70a13.59,13.59,0,0,1-1.27,1.74A11.56,11.56,0,0,1,341,73.22a7.35,7.35,0,0,1-6.62,1.36,11.3,11.3,0,0,1-3.9-1.81,6.7,6.7,0,0,1-2.54-3.4,7.25,7.25,0,0,1-.32-2.31,14.14,14.14,0,0,1,.25-2.68,26.41,26.41,0,0,1,3.25-8.15,12.17,12.17,0,0,1,2.11-2.68,8.65,8.65,0,0,1,3.74-2,7.25,7.25,0,0,1,3.73.08,11.79,11.79,0,0,1,3.59,1.63,6.77,6.77,0,0,1,2.76,3.67,3.88,3.88,0,0,1,.18.69C347.34,58.1,347.38,58.64,347.46,59.34Z"/><path class="cls-36" d="M422.73,133.57a3.8,3.8,0,0,1-.48,1.74,5.11,5.11,0,0,1-3.8,2.73,3.94,3.94,0,0,1-2.42-.51,5.85,5.85,0,0,1-1.8-1.48c-.5-.59-1-1.21-1.45-1.83-.62-.81-1.22-1.63-1.82-2.45a.42.42,0,0,1,0-.33.85.85,0,0,1,.24-.26l6.56-5c.31-.24.56-.22.77.06.91,1.18,1.83,2.37,2.72,3.57a7,7,0,0,1,1.2,2.4C422.58,132.63,422.64,133.11,422.73,133.57Z"/><path class="cls-42" d="M433.1,123.48a3.4,3.4,0,0,1-.73,2.16,5.12,5.12,0,0,1-3.11,2,3.53,3.53,0,0,1-2.73-.59,4.88,4.88,0,0,1-1.09-.93c-.9-1.12-1.76-2.26-2.63-3.4-.13-.18,0-.33.1-.47a.37.37,0,0,1,.12-.13l6-4.59c.24-.18.46-.18.62,0,.84,1.09,1.68,2.18,2.49,3.28a5.09,5.09,0,0,1,.83,1.78A8.18,8.18,0,0,1,433.1,123.48Z"/><path class="cls-36" d="M437.62,351.06a5.18,5.18,0,0,1-3.73-1.41,3.71,3.71,0,0,1-1.21-2.35,5.55,5.55,0,0,1,.29-2.65c.19-.5.41-1,.65-1.48.47-1,1-1.92,1.45-2.88.76-1.49.63-1.31,2-.64,1.92,1,3.84,1.94,5.76,2.92l1,.5a.52.52,0,0,1,.25.61,41.88,41.88,0,0,1-2.58,4.92,6.47,6.47,0,0,1-1.46,1.58A3.66,3.66,0,0,1,437.62,351.06Z"/><path class="cls-40" d="M451.22,356.1a4.76,4.76,0,0,1-4.58-3.53,3,3,0,0,1,0-1.43,8.1,8.1,0,0,1,.44-1.37c.57-1.19,1.17-2.36,1.77-3.54a.53.53,0,0,1,.77-.21l6.58,3.33c.42.22.53.5.33.88-.57,1.13-1.14,2.25-1.74,3.36a5.62,5.62,0,0,1-1.64,1.89A3,3,0,0,1,451.22,356.1Z"/><path class="cls-36" d="M383.05,78.23a8.08,8.08,0,0,1-.61,3.13,25.08,25.08,0,0,1-5.88,9,9.46,9.46,0,0,1-4.5,2.52,7.1,7.1,0,0,1-4.23-.32,11.34,11.34,0,0,1-4.16-2.77,6.79,6.79,0,0,1-1.82-6.3,11.47,11.47,0,0,1,.71-2.41,27.28,27.28,0,0,1,5-7.82,12.13,12.13,0,0,1,2.64-2.15,8,8,0,0,1,4.46-1.15,7.29,7.29,0,0,1,2.62.58,11.61,11.61,0,0,1,3.56,2.39A6.76,6.76,0,0,1,383.05,78.23Z"/><path class="cls-42" d="M199.86,44a3.94,3.94,0,0,1,4.08,2.37,5.67,5.67,0,0,1,.53,2.44,4,4,0,0,1-1.14,2.76,5.6,5.6,0,0,1-1.91,1.32,23.89,23.89,0,0,1-4.12,1.26.5.5,0,0,1-.55-.34,5.1,5.1,0,0,1-.19-.5l-2.13-7.25c-.13-.45,0-.74.39-.85,1.22-.35,2.42-.7,3.65-1A9.36,9.36,0,0,1,199.86,44Z"/><path class="cls-36" d="M60.43,184.63a15,15,0,0,1-.34,1.62c-.34,1.09-.75,2.16-1.13,3.23a.56.56,0,0,1-.74.32L55,188.68,50.41,187a.54.54,0,0,1-.34-.72c.38-1.07.75-2.15,1.17-3.22a7.86,7.86,0,0,1,1.22-2.19,3.7,3.7,0,0,1,4-1.38c.23.06.47.09.7.17A4.54,4.54,0,0,1,60.43,184.63Z"/><path class="cls-36" d="M324.5,460.08A4.61,4.61,0,0,1,325,458a12.16,12.16,0,0,1,2-3,.73.73,0,0,1,.65-.24,16,16,0,0,1,3,.51c.4.12.8.24,1.19.4a4.53,4.53,0,0,1,2.78,3.5,3.35,3.35,0,0,1-.66,2.71,3,3,0,0,1-.48.53,8.06,8.06,0,0,1-5.64,1.9,3.09,3.09,0,0,1-2.4-1.4A4.39,4.39,0,0,1,324.5,460.08Z"/><path class="cls-42" d="M327.77,444.17c0,.16-.09.58-.2,1a8.85,8.85,0,0,1-1.59,3,.7.7,0,0,1-.62.3,10.45,10.45,0,0,1-3.82-.92,4.11,4.11,0,0,1-2.36-3.4,2.88,2.88,0,0,1,.95-2.6,6.32,6.32,0,0,1,4.11-1.61,3,3,0,0,1,2.83,1.61A4.89,4.89,0,0,1,327.77,444.17Z"/><path class="cls-36" d="M405.77,103.52a4,4,0,0,1-1.74-.38,6,6,0,0,1-1.84-1.11q-1.4-1.27-2.76-2.58c-.24-.23-.22-.49,0-.77s.32-.36.49-.53l4.81-5.1a7.57,7.57,0,0,1,.66-.61.41.41,0,0,1,.33,0,.6.6,0,0,1,.3.17c.87.83,1.74,1.65,2.6,2.49A7.66,7.66,0,0,1,410,96.93a3.89,3.89,0,0,1-.16,4.1,5.66,5.66,0,0,1-1.89,1.88A3.9,3.9,0,0,1,405.77,103.52Z"/><path class="cls-42" d="M57.82,319.67l-6.49-.16c-.15,0-.25,0-.25-.19a1.19,1.19,0,0,1,.1-.32.38.38,0,0,1,.14-.11l10.31-7.29.3-.18a.42.42,0,0,1,.48.11,2,2,0,0,1,.15.33q1.11,3.61,2.2,7.23c0,.12,0,.24,0,.36s-.21.38-.33.38c-.54,0-1.08,0-1.62,0l-5-.19Z"/><path class="cls-42" d="M66.12,355.83c-.05,0-.1-.06-.12-.11s-.06-.13,0-.17a3.11,3.11,0,0,1,.32-.42l8.78-9c.09-.09.19-.15.28-.23a.34.34,0,0,1,.46.09c.1.16.19.31.27.47l3.21,6.21c.08.16.17.32.24.48a.46.46,0,0,1-.29.69l-1.59.27-8,1.22-3.19.48Z"/><path class="cls-42" d="M449.1,151.49q-4.31,4.57-8.62,9.16l-.38.38c-.24.23-.52.17-.7-.17-1.23-2.26-2.44-4.53-3.66-6.8a1.69,1.69,0,0,1-.11-.34.34.34,0,0,1,.22-.42c.34-.09.69-.19,1-.25l10.79-1.87.53-.06C448.64,150.93,449,150.91,449.1,151.49Z"/><path class="cls-43" d="M449.1,151.49c-.21-.33-.59-.25-.88-.38a1.14,1.14,0,0,1,.74-.32c.33,0,.55.06.53.24A.48.48,0,0,1,449.1,151.49Z"/><path class="cls-36" d="M294.24,452.48a6,6,0,0,1,.27-1.78,3.9,3.9,0,0,1,2.39-2.52,6.58,6.58,0,0,1,1.57-.4,3.53,3.53,0,0,1,2.84.88,6.93,6.93,0,0,1,1.58,2.17,24,24,0,0,1,1.67,4.94.78.78,0,0,1-.29.8,8.74,8.74,0,0,1-5.28,2.49,4.74,4.74,0,0,1-1.24-.08,2.81,2.81,0,0,1-1.81-1.1,4.11,4.11,0,0,1-.59-.9A10.35,10.35,0,0,1,294.24,452.48Z"/><path class="cls-36" d="M342.78,434.32a4.24,4.24,0,0,1,3-4.19,3.61,3.61,0,0,1,3.89.49,10.12,10.12,0,0,1,1.43,1.35,20.87,20.87,0,0,1,2.84,4.35.62.62,0,0,1,0,.67,8.67,8.67,0,0,1-4.71,4,3.17,3.17,0,0,1-3.49-.71,9.13,9.13,0,0,1-2.81-5.3C342.81,434.71,342.8,434.47,342.78,434.32Z"/><path d="M254.35,123.87c4,.1,7.77.22,11.48.64a88.91,88.91,0,0,1,58.66,30.54,99.78,99.78,0,0,1,6.24,7.93,10.72,10.72,0,0,0,.67.84.37.37,0,0,0,.32.08c.39-.15.76-.35,1.15-.5a5.75,5.75,0,0,1,3.71-.12,8.6,8.6,0,0,1,2.72,1.37,14.54,14.54,0,0,1,2.49,2.34,28.07,28.07,0,0,1,3,4.28,47.77,47.77,0,0,1,4.63,11.5,43.74,43.74,0,0,1,1.36,7.43,26.25,26.25,0,0,1-.19,7.19,11.07,11.07,0,0,1-2,4.94,1.12,1.12,0,0,0-.26.83c.07.54.15,1.07.24,1.61a38.76,38.76,0,0,1,.56,6.27,19.35,19.35,0,0,1-.24,3.23,14,14,0,0,0,0,2.34.42.42,0,0,0,.21.25,1.55,1.55,0,0,0,.51.14,11.94,11.94,0,0,0,3.58-.35,5.73,5.73,0,0,0,2.45-1.07A2.71,2.71,0,0,1,357,215a2.86,2.86,0,0,1,3.19,2.71,3.83,3.83,0,0,1,0,1.07,30.48,30.48,0,0,1-1.1,4.55,15,15,0,0,1-2.2,4.12,12.2,12.2,0,0,1-5.76,4.16c-.51.17-1,.3-1.55.45s-.81.36-.84,1c-.08,1.92-.16,3.85-.23,5.77a54,54,0,0,0,.21,5.4,2.55,2.55,0,0,0,.79,1.77c.66.61,1.3,1.24,2,1.81,1.13.9,2.29,1.75,3.43,2.63.81.63,1.63,1.25,2.4,1.91a11.72,11.72,0,0,1,2.3,2.52,5.55,5.55,0,0,1,1,3.21,23.49,23.49,0,0,1-.08,2.52,5.29,5.29,0,0,1-4.12,4.69,7.57,7.57,0,0,1-2,.24h-4c-.36,0-.73,0-1.08,0-.11,0-.29.08-.31.16a1.74,1.74,0,0,0,.11,1.38.4.4,0,0,0,.28.18c.54,0,1.08,0,1.62-.07l3.06-.16a10.58,10.58,0,0,1,2.86.3,5.52,5.52,0,0,1,4.18,3.59,7.7,7.7,0,0,1,.3,1c.42,2.06,1,4.09,1.29,6.17a16.27,16.27,0,0,1,.22,2.69c0,.78,0,1.56,0,2.34a9.78,9.78,0,0,1-.7,3.34,4.88,4.88,0,0,1-3,3,4.56,4.56,0,0,1-1.41.26h-1.8a.32.32,0,0,0-.32.33c.05.24.06.48.12.71a9.91,9.91,0,0,1-.5,6.53,13.39,13.39,0,0,1-3.05,4.63c-.22.21-.44.41-.64.64a2.06,2.06,0,0,0-.51,1.13c0,.36-.05.72-.05,1.08,0,2.84-.53,2.56,2.53,2.68a24.3,24.3,0,0,1,6.39,1,12.79,12.79,0,0,1,3.72,1.79,8.18,8.18,0,0,1,3.38,4.94,7.62,7.62,0,0,1,.22,1.42c.06,2,.1,4.09.13,6.13,0,.42,0,.84-.05,1.26A4,4,0,0,1,366,326.9a7.86,7.86,0,0,1-1.86,1.08,17,17,0,0,1-3.1.93,49.93,49.93,0,0,1-5.16.83l-4.83.57c-1.26.14-2.51.27-3.77.39l-5.57.49c-2,.18-4.07.38-6.1.53s-4.2.29-6.3.4c-1.2.07-2.41.08-3.61.11a76.54,76.54,0,0,0-9.67,1,93.14,93.14,0,0,0-21.58,6.19q-9.22,3.84-18.17,8.31c-.16.08-.32.16-.47.25a.66.66,0,0,0-.36.58q0,.81,0,1.62c.09,3.91.14,7.82,0,11.72a35.55,35.55,0,0,1-.67,5.73,8.42,8.42,0,0,1-1.28,3.15c-.78,1.14-1.56,2.28-2.37,3.39a11.92,11.92,0,0,1-2,2.08,5.75,5.75,0,0,1-4.7,1.35,12.24,12.24,0,0,1-2.28-.5,7.24,7.24,0,0,1-4.26-3.91,8.61,8.61,0,0,1-.84-3.12c-.05-.83-.09-1.68-.1-2.52,0-2.4,0-4.81,0-7.21,0-.48,0-1,0-1.44a.4.4,0,0,0-.64-.3l-.78.45a69.08,69.08,0,0,0-5.82,3.94,6.32,6.32,0,0,1-1.72,1c-.32.11-.79-.05-1,.34a2.87,2.87,0,0,0-.15,1.06c-.11,2-.2,4.08-.29,6.12a41.84,41.84,0,0,1-2.15,11.3A17.18,17.18,0,0,1,243,386a9.94,9.94,0,0,1-1.87,2.41,5.93,5.93,0,0,1-4.43,1.66,11,11,0,0,1-3.36-.61,14.67,14.67,0,0,1-9.57-10,12.44,12.44,0,0,1-.55-3.37c-.05-3.07-.06-6.14.17-9.2l.09-1.44c.16-2.94.32-5.88.5-8.82.16-2.4.39-4.79.52-7.19.19-3.24.32-6.49.48-9.73,0-.36,0-.72,0-1.08s-.21-.61-.69-.61h-1.08c-1,0-1.93,0-2.89,0a23.16,23.16,0,0,1-6.42-.74,29,29,0,0,1-7.53-2.91,21.4,21.4,0,0,1-4.47-3.33,18.22,18.22,0,0,1-5.4-10.94,22.31,22.31,0,0,0-.77-3.7,11.57,11.57,0,0,0-1.93-3.84,7.56,7.56,0,0,0-4.25-2.85,6.33,6.33,0,0,0-1.42-.21,11.32,11.32,0,0,1-4.84-1.28A19.57,19.57,0,0,1,179.8,306a31.55,31.55,0,0,1-4.67-4.5,46,46,0,0,1-6.37-9.79,150.87,150.87,0,0,1-8.84-22,122.82,122.82,0,0,1-3.54-14.88c-.56-3.29-1.06-7.12-1.3-10-.25-3.05-.49-6.11-.47-9.18,0-2.59,0-5.17,0-7.76.06-2.76.3-5.52.58-8.27.21-2,.48-4.06.77-6.08a109.89,109.89,0,0,1,2.63-12.69,108.7,108.7,0,0,1,12.21-28.74,101.38,101.38,0,0,1,34.94-34.74,95.87,95.87,0,0,1,27.08-11c3-.72,6-1.24,9-1.66A106.19,106.19,0,0,1,254.35,123.87Z"/><path class="cls-44" d="M229.54,334.46c-3.25,0-6.49,0-9.74,0a22.17,22.17,0,0,1-8.59-1.67,19.35,19.35,0,0,1-4.63-2.39,15.33,15.33,0,0,1-5.88-7.77,17.5,17.5,0,0,1-.64-2.8,25.75,25.75,0,0,0-1.45-5.92,14.38,14.38,0,0,0-1.76-3.13,11.76,11.76,0,0,0-8-4.78,4.54,4.54,0,0,0-.9-.06,6.13,6.13,0,0,1-2.94-.73,18.1,18.1,0,0,1-1.71-1,26.07,26.07,0,0,1-6-5.63c-.64-.79-1.31-1.57-1.87-2.42-.92-1.41-1.79-2.84-2.62-4.31-1.35-2.42-2.41-5-3.54-7.48s-2.14-4.83-3.06-7.31c-.82-2.19-1.61-4.39-2.33-6.62-1.13-3.49-2-7-2.87-10.59-.39-1.69-.75-3.39-1-5.11-.16-1.13-.41-2.24-.61-3.36a1,1,0,0,1,.24-.84,6.82,6.82,0,0,1,1.49-1.29c.92-.56,1.82-1.17,2.76-1.7,1.52-.85,3.05-1.7,4.6-2.49,2.94-1.5,5.89-3,8.87-4.43,2.75-1.33,5.55-2.58,8.33-3.87,1.85-.86,3.7-1.72,5.56-2.56,1.48-.67,3-1.3,4.46-1.95,1.32-.58,2.63-1.17,3.95-1.74,2.38-1,4.75-2,7.13-3,2.54-1.08,5.08-2.17,7.63-3.21,3.23-1.32,6.46-2.6,9.7-3.88q3.85-1.53,7.71-3c2.13-.82,4.27-1.61,6.41-2.4,3.83-1.41,7.66-2.83,11.5-4.19,3.29-1.16,6.59-2.24,9.9-3.34,3.07-1,6.15-2.07,9.24-3,2.35-.73,4.68-1.52,7.06-2.16,1.44-.38,2.87-.87,4.3-1.3l2.25-.64c.52-.14.73,0,1,.46.42.73.84,1.46,1.28,2.17a16,16,0,0,0,2.19,2.86c.74.78,1.46,1.57,2.28,2.29a20.32,20.32,0,0,0,3.51,2.49,21.7,21.7,0,0,0,6.07,2.23,19.57,19.57,0,0,0,5.91.32,18.51,18.51,0,0,0,5.08-1.13,21.69,21.69,0,0,0,4.8-2.44,24.64,24.64,0,0,0,5.19-4.7,29.5,29.5,0,0,0,3.88-6.25,21.45,21.45,0,0,0,1.6-5c.12-.64.26-1.29.39-1.93a.8.8,0,0,1,.56-.65,5.43,5.43,0,0,1,1.05-.21c.6,0,1.2,0,1.8-.08a5.38,5.38,0,0,0,.9-.08c1.24-.25,1.21-.38,1.84,1,.27.61.5,1.23.78,1.82a34.71,34.71,0,0,0,3.94,6.44,16.92,16.92,0,0,0,2.65,2.7,10.08,10.08,0,0,0,3.36,1.71,7.06,7.06,0,0,0,1.6.15.9.9,0,0,1,.86.78c0,.3.06.6.08.9a7.6,7.6,0,0,0,.09,1.07,23.61,23.61,0,0,1,.25,5.57,5.11,5.11,0,0,1-.47,1.91.85.85,0,0,1-.85.56,37.87,37.87,0,0,1-5.93-.26,6.61,6.61,0,0,0-1.26-.06H324.5a8.17,8.17,0,0,0-2,.18,5.85,5.85,0,0,1-1.26.1l-2.88.07a5.77,5.77,0,0,0-1.25.13,8.32,8.32,0,0,1-1.79.2,6.3,6.3,0,0,0-1.78.22,3.39,3.39,0,0,1-.71.11,36,36,0,0,0-6.52,1.26c-3.36.92-6.7,1.89-10,3.06a71.35,71.35,0,0,0-9.74,4.24,57.15,57.15,0,0,0-8.29,5.39c-1.47,1.15-2.89,2.34-4.32,3.53-1.91,1.58-3.64,3.32-5.38,5.06a44,44,0,0,0-7,9.11,47.25,47.25,0,0,0-4.58,10,33.81,33.81,0,0,0-1.44,6.12c-.4,1.21-.27,2.5-.6,3.73a5.17,5.17,0,0,0-.06,1.25c0,1.69-.06,3.37-.06,5.05V318c0,.42,0,.84,0,1.26a17.65,17.65,0,0,1-.72,5.51,12.51,12.51,0,0,1-7,8.24,16.22,16.22,0,0,1-3.42,1.09,17.67,17.67,0,0,1-3.76.35Z"/><path class="cls-44" d="M254.66,127.71h5.23a11.51,11.51,0,0,1,3,.26,3.86,3.86,0,0,0,.9.07,9.71,9.71,0,0,1,2.68.29,1.54,1.54,0,0,0,.53.06c1.51.07,3,.44,4.44.65a74.14,74.14,0,0,1,8.6,1.91c2.55.67,5.05,1.55,7.52,2.46,2.26.84,4.44,1.84,6.63,2.82.82.36,1.61.81,2.4,1.24,1.31.73,2.62,1.46,3.93,2.21a72.45,72.45,0,0,1,7.92,5.31c1.43,1.09,2.8,2.26,4.18,3.41a95.19,95.19,0,0,1,7.64,7.39c1.16,1.21,2.18,2.55,3.28,3.83,1.44,1.68,2.72,3.5,4.06,5.27.15.19.3.38.43.58A7.13,7.13,0,0,1,329,167c.21.58-.22,1.14-.37,1.71a13.27,13.27,0,0,0-.5,3.37c0,1.45,0,2.89,0,4.33a5.38,5.38,0,0,1,0,.9c0,.15-.15.37-.28.41a7.91,7.91,0,0,1-2.46.49.84.84,0,0,1-.87-.49c-.3-.66-.67-1.29-.9-2a14.53,14.53,0,0,0-1.82-3.3c-.79-1.2-1.75-2.29-2.65-3.41a3.82,3.82,0,0,0-.63-.64,32.65,32.65,0,0,0-4.17-3.13,21,21,0,0,0-6-2.4,18.27,18.27,0,0,0-6.07-.48,22.34,22.34,0,0,0-9.32,3.07,26.22,26.22,0,0,0-6.78,6.12,25.94,25.94,0,0,0-4.1,7.76,21.39,21.39,0,0,0-1.19,5.25c-.08,1-.31,1.89-.33,2.86a.85.85,0,0,1-.66.76l-5.56,1.49c-2.49.67-5,1.34-7.46,2-2.83.8-5.66,1.61-8.47,2.46-2.53.76-5,1.6-7.56,2.37q-6.88,2.1-13.68,4.48c-4.14,1.45-8.27,2.91-12.37,4.43-3.72,1.38-7.4,2.83-11.1,4.24-3.14,1.2-6.22,2.55-9.32,3.85q-4.41,1.84-8.78,3.74c-1.22.52-2.42,1.06-3.62,1.62-2.56,1.19-5.11,2.41-7.66,3.6-3.54,1.65-7.06,3.34-10.53,5.13q-4.09,2.1-8.14,4.26c-1.91,1-3.78,2.1-5.68,3.14-.42.23-.86.41-1.3.61-.12.06-.37-.13-.38-.27,0-.36,0-.72,0-1.08q0-3.53,0-7a14.45,14.45,0,0,1,.26-3.41,4.83,4.83,0,0,0,.07-1.08,13.47,13.47,0,0,1,.3-3.22,3.29,3.29,0,0,0,.07-.71,17.55,17.55,0,0,1,.28-2.5c.17-.94.28-1.9.41-2.85.31-2.19.76-4.36,1.2-6.53.68-3.3,1.61-6.52,2.57-9.74.63-2.12,1.4-4.22,2.2-6.29a108.26,108.26,0,0,1,4.93-11c1.11-2.13,2.32-4.21,3.57-6.26.66-1.07,1.35-2.13,2-3.19,1.69-2.62,3.6-5.09,5.54-7.54,1.18-1.5,2.5-2.91,3.77-4.35s2.77-3,4.24-4.42q2.6-2.49,5.38-4.79c1.71-1.41,3.45-2.79,5.24-4.1s3.75-2.6,5.68-3.82,4.16-2.41,6.25-3.59c1-.59,2.15-1.07,3.24-1.56,1.42-.65,2.85-1.29,4.28-1.89a80,80,0,0,1,9-3.19c1.9-.55,3.81-1.07,5.74-1.5,1.76-.39,3.52-.72,5.29-1,1.24-.23,2.51-.24,3.73-.58a4.19,4.19,0,0,1,1.07-.08,11.46,11.46,0,0,0,2.33-.25,6.15,6.15,0,0,1,1.43-.1c2.1,0,4.21-.06,6.31-.09Z"/><path class="cls-45" d="M345,262.5c-2.95,0-5.89-.05-8.83.15a4.86,4.86,0,0,1-1.08,0,1.23,1.23,0,0,1-1-1.32,2.24,2.24,0,0,1,.51-1.33,11.3,11.3,0,0,1,1.11-1.18c1.14-1,2.31-1.92,3.48-2.87.37-.3.77-.57,1.15-.87a3,3,0,0,0,1-2,.92.92,0,0,0-.58-.83,3.85,3.85,0,0,0-1.06-.13,9,9,0,0,0-6.2,2.94,9.3,9.3,0,0,0-2.51,7.62,5.52,5.52,0,0,0,.37,1.38,2.73,2.73,0,0,0,1.5,1.5,4.6,4.6,0,0,0,1.56.4,14.84,14.84,0,0,0,3-.18,36,36,0,0,1,7.54-.51,3.38,3.38,0,0,1,.71.1.37.37,0,0,1,.23.26c.07.59.12,1.19.14,1.79a.39.39,0,0,1-.28.41c-.41.1-.81.2-1.23.28-2.3.41-4.61.82-6.87,1.41A27.71,27.71,0,0,0,327,275a22.35,22.35,0,0,0-6,7.58,64.71,64.71,0,0,0-2.69,6.09,33.39,33.39,0,0,0-1.73,7.16,55.36,55.36,0,0,0-.27,9.37,24.18,24.18,0,0,0,1.91,8.2,6.78,6.78,0,0,0,.69,1.27,3.3,3.3,0,0,0,2.6,1.4,3.75,3.75,0,0,0,3.2-1.34c.2-.22.38-.46.56-.7l2.1-2.71a82.52,82.52,0,0,1,9.43-10.17c2.42-2.26,4.91-4.44,7.49-6.5a15,15,0,0,1,3.37-2.07,4.7,4.7,0,0,1,1.73-.44,9.9,9.9,0,0,0,3.18-.6c.31-.11.55.07.65.42a4.8,4.8,0,0,1,.09,2.32,10.44,10.44,0,0,1-2.89,5.5c-.25.26-.53.49-.77.76a4.54,4.54,0,0,0-1.25,2.74c-.08,1.32-.09,2.64-.09,4a3,3,0,0,0,.32,1.39,3.07,3.07,0,0,0,2.09,1.58,9.53,9.53,0,0,0,2.32.31c.78,0,1.56,0,2.34.08a17.1,17.1,0,0,1,4.07.76,9.43,9.43,0,0,1,2.89,1.44,5.29,5.29,0,0,1,2.22,4.15c.08,2.16.06,4.33.09,6.49a1.51,1.51,0,0,1-.75,1.35,2.36,2.36,0,0,1-1.86.37c-3.3-.64-6.61-1.23-9.93-1.79-2.78-.46-5.58-.87-8.37-1.26q-3.66-.51-7.34-.92c-1.73-.18-3.47-.33-5.21-.4-3.36-.12-6.73-.1-10.1.09-.66,0-1.32.09-2,.12-2.7.11-5.39.37-8.08.68-1.73.2-3.47.34-5.2.5-2.58.25-5.12.68-7.66,1.18-1.47.3-2.94.62-4.43.81a34.78,34.78,0,0,1-4,.23,28.31,28.31,0,0,1-8.72-1.15,18.8,18.8,0,0,1-4.12-1.78,11.93,11.93,0,0,1-2.68-2.12,9.87,9.87,0,0,1-2.75-6.12c-.06-.72-.08-1.44-.08-2.16,0-2.41,0-4.81,0-7.22,0-.42,0-.84,0-1.26a7.16,7.16,0,0,0-3-5.53,10.61,10.61,0,0,0-3.22-1.58l-2.41-.73a24.31,24.31,0,0,1-3.51-1.42,1.33,1.33,0,0,1-.9-1.39c0-.36,0-.72,0-1.08,0-5.54,0-11.07,0-16.6,0-1.86,0-3.73.16-5.59a41.4,41.4,0,0,1,3-13.1c.09-.22.21-.43.32-.65a.54.54,0,0,1,.48-.17c.54.26,1.1.48,1.61.79,1.08.66,2.15,1.33,3.17,2.07a55.75,55.75,0,0,1,11.1,10.76,19.65,19.65,0,0,1,3.68,7.94,29.71,29.71,0,0,1,.73,6.44c0,2,0,4.08-.17,6.13-.1,1.37-.09,2.76-.12,4.14a6.19,6.19,0,0,0,.27,2,4.83,4.83,0,0,0,.24.67,1.84,1.84,0,0,0,2.84.85,2.92,2.92,0,0,0,1.4-2.2,8.85,8.85,0,0,0,.05-1.26c-.08-3.9-.15-7.81-.24-11.72a17.6,17.6,0,0,0-.78-4.61,44.58,44.58,0,0,0-7.06-14.1,20.59,20.59,0,0,0-2.67-2.93,41.21,41.21,0,0,0-3.79-3.06,83.63,83.63,0,0,0-7.45-4.73l-1.08-.64a.47.47,0,0,1-.15-.48c.14-.27.27-.54.42-.8a45.21,45.21,0,0,1,6.84-9,84.85,84.85,0,0,1,11.53-9.8A56.45,56.45,0,0,1,296,224.29c.35-.13.6,0,.59.39-.1,2.16-.2,4.32-.28,6.49a17.17,17.17,0,0,0,.08,2.15,3.57,3.57,0,0,0,1.26,2.33,3.4,3.4,0,0,0,4.83-.37c.15-.19.29-.39.43-.59a13.82,13.82,0,0,1,7.93-5.28,21.75,21.75,0,0,1,7.87-.54,23.85,23.85,0,0,1,8.1,2.32c1.14.55,2.3,1,3.44,1.57.47.21.58.51.33,1s-.39.75-.61,1.11a5.68,5.68,0,0,1-4,2.84,16.26,16.26,0,0,1-3.4.39c-1,0-1.92,0-2.89,0a1.88,1.88,0,0,0-1,.26,5,5,0,0,0-2.42,3.61.67.67,0,0,0,.58.78c.17,0,.36,0,.53.07a5.35,5.35,0,0,1,1.67.66,3.83,3.83,0,0,1,2,3.41,15.33,15.33,0,0,1-1.94,7.42,5.87,5.87,0,0,1-1.25,1.52l-3,2.84c-1.35,1.29-2.69,2.58-4,3.9-.68.67-1.31,1.4-2,2.09a14.44,14.44,0,0,0-3.27,5.34,33.41,33.41,0,0,0-1.42,5,9.59,9.59,0,0,0-.16,2.51,1.45,1.45,0,0,0,1.29,1.29,2.35,2.35,0,0,0,1.55-.37.82.82,0,0,0,.41-.57c.3-2.08.89-4.1,1.38-6.15a16.36,16.36,0,0,1,2.51-5.54,21.43,21.43,0,0,1,5.21-5.45,27,27,0,0,0,5-4.68c.89-1,1.73-2.15,2.6-3.23a1.5,1.5,0,0,0,.34-1v-6.49a2,2,0,0,0-.75-1.57,12.58,12.58,0,0,0-1-.75c-.4-.26-.82-.5-1.22-.77a1.69,1.69,0,0,1-.36-.39c-.21-.28,0-.84.3-.87,1.08-.09,2.16-.18,3.24-.25.72-.05,1.44-.05,2.16-.08A6.81,6.81,0,0,0,331,238.8a9.45,9.45,0,0,0,2.19-3.05c.21-.43.37-.89.55-1.33a.64.64,0,0,1,.68-.46,28.41,28.41,0,0,0,9.15-.45l1.59-.31c.37-.06.58.11.56.48,0,.72-.12,1.44-.13,2.16,0,2-.07,4.09,0,6.13,0,1.08.18,2.15.29,3.23a4,4,0,0,0,1,2.28,24.43,24.43,0,0,0,2.05,2c1.14,1,2.35,1.87,3.54,2.79.8.63,1.64,1.22,2.42,1.88a24.93,24.93,0,0,1,1.82,1.74,3.52,3.52,0,0,1,1,2.79c0,.59,0,1.2-.15,1.79a2.23,2.23,0,0,1-1.91,1.9,9.74,9.74,0,0,1-1.61.15c-2.53,0-5.05,0-7.58,0Z"/><path class="cls-45" d="M352.25,327.17c-4.05.47-8.12.85-12.19,1.19-3.11.26-6.22.6-9.34.72l-4.33.17a92.32,92.32,0,0,0-31.52,6.8c-7,2.8-13.77,6-20.49,9.3-6.07,3-12.07,6.21-17.91,9.67a86.67,86.67,0,0,0-8.58,5.62,1.44,1.44,0,0,1-.31.19.73.73,0,0,1-.33,0c-.16,0-.21-.09-.21-.25s0-.36,0-.53l.09-2.71c.07-2,.15-4,.21-5.94q.21-7,.39-14.06a1.07,1.07,0,0,1,.74-1.09l.16-.07.33-.14a16,16,0,0,0,8.43-9.62,20.06,20.06,0,0,0,1-6.56c0-3.72,0-7.45,0-11.18,0-3.54,0-7.09,0-10.63,0-.42,0-.84.07-1.25a.38.38,0,0,1,.41-.26l1,.28a22.33,22.33,0,0,1,3.85,1.52,10.6,10.6,0,0,1,2.4,1.58,4,4,0,0,1,1.43,3.17c0,3.12,0,6.24,0,9.37,0,.6.05,1.2,0,1.8a5.47,5.47,0,0,0,.67,2.94,20.66,20.66,0,0,0,5.14,6.66,16.79,16.79,0,0,0,10,4.07c.72,0,1.44.08,2.16.08a68.28,68.28,0,0,0,8.81-.5,46.8,46.8,0,0,0,6-1.24,39,39,0,0,1,5.47-1.12c.29,0,.59-.08.89-.1,3.84-.28,7.67-.58,11.5-.83,3.06-.2,6.12-.35,9.18-.52a28.07,28.07,0,0,1,3.78.08c3.77.31,7.52.82,11.28,1.28,3.39.42,6.78.94,10.17,1.41a.22.22,0,0,1,.2.3A1.29,1.29,0,0,1,352.25,327.17Z"/><path class="cls-39" d="M323.15,187.15A24.61,24.61,0,0,1,318,202.39a19.79,19.79,0,0,1-7.81,6.22,17.35,17.35,0,0,1-18.18-2.07,20,20,0,0,1-6.82-9.11,24.44,24.44,0,0,1-1.56-12.18,25.38,25.38,0,0,1,2.7-8.72,22,22,0,0,1,6.76-7.83,18.44,18.44,0,0,1,8.8-3.4,17.32,17.32,0,0,1,10.73,2.3,19.7,19.7,0,0,1,6.88,6.73,23.16,23.16,0,0,1,3.27,8.69A27.18,27.18,0,0,1,323.15,187.15Z"/><path class="cls-46" d="M158.59,244.86v-2.35a5.09,5.09,0,0,0-.19-1.6,1.91,1.91,0,0,1-.1-.53c-.09-1.74-.28-1.93,1.46-2.86,2.28-1.23,4.53-2.49,6.79-3.74l.16-.08c5-2.68,10.09-5.33,15.24-7.78,2.28-1.08,4.55-2.19,6.83-3.25,1.8-.84,3.62-1.61,5.43-2.41l3.94-1.77c2-.89,4.07-1.79,6.11-2.65,1.82-.78,3.67-1.5,5.49-2.26,3.71-1.55,7.47-3,11.22-4.42,2.46-1,4.94-1.87,7.41-2.78,3.27-1.2,6.57-2.29,9.85-3.45,2-.7,4-1.42,6-2.06,3.09-1,6.15-2,9.25-3,2.82-.85,5.6-1.8,8.45-2.52,1.33-.33,2.63-.8,4-1.18,2-.56,3.91-1.15,5.89-1.64,1.8-.45,3.58-1,5.37-1.48.92-.25,1.86-.48,2.79-.7.49-.11.57,0,.73.51a3.94,3.94,0,0,1,.21.87,24.51,24.51,0,0,0,1.2,5.61c0,.17.11.34.16.51a.47.47,0,0,1-.25.44c-.4.13-.8.28-1.2.39q-2.43.66-4.83,1.41c-2.41.75-4.83,1.44-7.23,2.2-2.8.88-5.59,1.81-8.38,2.74-3.08,1-6.15,2-9.21,3.1-2.5.86-5,1.79-7.45,2.69-1.58.57-3.17,1.11-4.74,1.7Q235,214,231.17,215.5c-3.36,1.29-6.73,2.57-10.08,3.88-1.73.68-3.44,1.41-5.16,2.12l-4.33,1.76-6,2.51-6.3,2.65c-1,.42-2,.85-3,1.29-1.59.71-3.17,1.45-4.76,2.15s-3.08,1.34-4.62,2l-.33.16c-2.12,1-4.24,2-6.36,3-3.3,1.58-6.63,3.1-9.88,4.8-2.34,1.21-4.69,2.43-7,3.73-1.51.86-2.95,1.84-4.46,2.7a.33.33,0,0,1-.27-.15,1.54,1.54,0,0,1-.06-.53v-2.7Z"/><path class="cls-47" d="M318.79,301.82a34.86,34.86,0,0,1,.38-6.29,28.47,28.47,0,0,1,1.81-6.77c.77-1.95,1.67-3.85,2.63-5.72a19.07,19.07,0,0,1,4.6-5.73,25.16,25.16,0,0,1,11.32-5.65q3.44-.74,6.9-1.33a51.13,51.13,0,0,1,7.71-.68,11.48,11.48,0,0,1,2.33.21,2.86,2.86,0,0,1,2.35,2,5.44,5.44,0,0,1,.23.68c.45,2.18,1.05,4.32,1.32,6.53a19.08,19.08,0,0,1-.08,5.39,5.13,5.13,0,0,1-.52,1.53,2.13,2.13,0,0,1-1.88,1.21c-.72,0-1.44,0-2.16,0a3.42,3.42,0,0,0-2.48.86,8.77,8.77,0,0,1-1.32.94,4.45,4.45,0,0,1-2.25.56,9.89,9.89,0,0,0-5.05,1.72,18.6,18.6,0,0,0-2.06,1.45,126.68,126.68,0,0,0-13,12c-2.18,2.33-4.13,4.85-6.09,7.36-.3.38-.59.76-.9,1.13a1.08,1.08,0,0,1-1,.34.75.75,0,0,1-.61-.32,5.79,5.79,0,0,1-.51-.95,22.14,22.14,0,0,1-1.7-7.69C318.76,303.63,318.79,302.72,318.79,301.82Z"/><path class="cls-48" d="M225.77,373.36A12.92,12.92,0,0,1,226,370a5.51,5.51,0,0,0,.05-1.08c0-1.26,0-2.52.05-3.79a10.09,10.09,0,0,1,.23-2.5,5.71,5.71,0,0,0,.09-1.25,24.88,24.88,0,0,1,.31-4.48,12.89,12.89,0,0,0,.08-2.16,12.42,12.42,0,0,1,.26-3,4.3,4.3,0,0,0,.07-1.08c0-.9,0-1.8,0-2.7a4.49,4.49,0,0,1,0-.9,25.11,25.11,0,0,0,.31-5.2c0-1,0-1.92.06-2.88a.84.84,0,0,1,.81-.81l1.44,0c3.31,0,6.61,0,9.91,0a14.72,14.72,0,0,0,4.29-.36,2,2,0,0,1,.54,0c.21,0,.51.24.51.43a7.63,7.63,0,0,1,0,1.79,12.21,12.21,0,0,0-.19,2.33c0,2.88-.05,5.76-.08,8.65a8.6,8.6,0,0,1-.18,2.14,6.84,6.84,0,0,0-.1,1.43q0,3.53-.07,7a8.71,8.71,0,0,1-.18,2,6.79,6.79,0,0,0-.11,1.43c0,1.8,0,3.6-.07,5.41a5.63,5.63,0,0,1-.19,1.78,1.9,1.9,0,0,0-.09.53,20.33,20.33,0,0,1-.37,3.39,35.45,35.45,0,0,1-2,7.44,12.25,12.25,0,0,1-1.44,2.48,3.56,3.56,0,0,1-1.5,1.27,2.61,2.61,0,0,1-.85.26,8,8,0,0,1-3.88-.51,12.31,12.31,0,0,1-7.55-8.39,2.36,2.36,0,0,1-.1-.53,22.42,22.42,0,0,0-.29-2.31A18.26,18.26,0,0,1,225.77,373.36Z"/><path class="cls-47" d="M332.28,218.58c1,0,3,0,5,.08q4,.14,7.92.39a23.87,23.87,0,0,1,2.67.4,14.52,14.52,0,0,0,6.42-.43,7.8,7.8,0,0,0,2.75-1.29c.13-.11.43-.08.48,0a1.1,1.1,0,0,1,.12.33,2.45,2.45,0,0,1,0,.54c-.09.47-.18.94-.29,1.41a20.87,20.87,0,0,1-1,3.27,11.81,11.81,0,0,1-2.12,3.32,9.49,9.49,0,0,1-4.39,2.72,58.18,58.18,0,0,1-9.85,2.11,17.19,17.19,0,0,1-9.66-1.48c-1.08-.52-2.17-1-3.27-1.52a26.42,26.42,0,0,0-13.18-2.2,19.05,19.05,0,0,0-6.93,1.83,15.92,15.92,0,0,0-5.83,4.72c-.22.28-.44.57-.68.83a.85.85,0,0,1-1.25-.17A1.54,1.54,0,0,1,299,233a7.59,7.59,0,0,1-.08-1.07c0-2.77.13-5.53.4-8.28a.8.8,0,0,1,.66-.74c1.78-.53,3.55-1.12,5.34-1.62a46.93,46.93,0,0,1,5.59-1.36c1.37-.21,2.73-.42,4.1-.6A135.24,135.24,0,0,1,332.28,218.58Z"/><path class="cls-39" d="M330.88,174.77a19.56,19.56,0,0,1,.53-5.16,11.57,11.57,0,0,1,.65-1.67,4.35,4.35,0,0,1,.71-1,2.76,2.76,0,0,1,3.11-.79,6.54,6.54,0,0,1,2.17,1.25,15.67,15.67,0,0,1,2.43,2.65,30.35,30.35,0,0,1,3.19,5.42,47.24,47.24,0,0,1,3.88,12.5,31.13,31.13,0,0,1,.43,6.82,15,15,0,0,1-.71,3.88,5.84,5.84,0,0,1-.91,1.75,3.3,3.3,0,0,1-1.25,1,2.55,2.55,0,0,1-1.76.16,6.09,6.09,0,0,1-2.23-1.12,14.5,14.5,0,0,1-2.05-2,26,26,0,0,1-2.62-3.87,46.56,46.56,0,0,1-5.29-16.15C331,177.13,331,175.86,330.88,174.77Z"/><path class="cls-48" d="M258.93,363.32c0-1.74,0-3.48,0-5.22a1.54,1.54,0,0,1,.85-1.45c.82-.51,1.65-1,2.51-1.4.41-.2.61-.15.87.32a5,5,0,0,0,.86,1.13,3.66,3.66,0,0,0,3.12,1.11,4,4,0,0,0,3-1.75,2.82,2.82,0,0,0,.38-2.06,4.09,4.09,0,0,0-1.21-2.16.3.3,0,0,1,.06-.46l3.38-1.69a.42.42,0,0,1,.54.32c0,.36,0,.72.05,1.08a12,12,0,0,0,.23,2.86,4.23,4.23,0,0,1,.05,1.07c0,1.09,0,2.17,0,3.25a2.88,2.88,0,0,1,0,.72,22.35,22.35,0,0,0-.29,4.48,6.52,6.52,0,0,1-.09,1.25c-.3,1.16-.29,2.38-.69,3.52a5.92,5.92,0,0,1-.63,1.29c-.61,1-1.24,1.91-1.89,2.84a14.16,14.16,0,0,1-2.35,2.48,2.8,2.8,0,0,1-2,.72,14.54,14.54,0,0,1-1.62-.05,5.08,5.08,0,0,1-4-2.66,10,10,0,0,1-1.1-4.5c-.05-1.68,0-3.36,0-5Z"/><path class="cls-49" d="M327.68,180l.28,0a.57.57,0,0,1,.5.43c.21.93.39,1.87.61,2.79a42.38,42.38,0,0,0,1.13,4.15,2.28,2.28,0,0,1,.1.52.62.62,0,0,1-.44.68l-.54.06a7.8,7.8,0,0,0-2.3.28,1,1,0,0,1-.53,0,.84.84,0,0,1-.4-.32,1.24,1.24,0,0,1-.08-.52c0-.48,0-1,0-1.44a21.63,21.63,0,0,0-.64-5.49.59.59,0,0,1,.48-.81,9.27,9.27,0,0,1,1-.29A6.43,6.43,0,0,1,327.68,180Z"/><path class="cls-50" d="M266.93,356.39a2.94,2.94,0,0,1-1.92-.61,1.74,1.74,0,0,1-.1-2.78,2.48,2.48,0,0,1,1.27-.61,3.44,3.44,0,0,1,1.43.06,2.54,2.54,0,0,1,.8.37,1.76,1.76,0,0,1-.19,3.18A2.57,2.57,0,0,1,266.93,356.39Z"/><path class="cls-51" d="M352.25,327.17l.46-.34c.21-.26.51-.14.78-.16a.57.57,0,0,1,.38.16.23.23,0,0,1-.15.32A4.53,4.53,0,0,1,352.25,327.17Z"/><path class="cls-52" d="M353.66,326.79l-1,0-.11-.32,1.13,0c.09.08.12.15.06.2A.21.21,0,0,1,353.66,326.79Z"/><path class="cls-53" d="M353.66,326.79a.45.45,0,0,0,.07-.25c.37-.06.75-.18,1,.26-.27.31-.58.23-.89.08Z"/><path class="cls-54" d="M353.83,326.88l.89-.08a.46.46,0,0,1-.49.38,4.36,4.36,0,0,1-.51,0A1.53,1.53,0,0,1,353.83,326.88Z"/><path class="cls-55" d="M235.09,365.81c-.24,0-.48,0-.72,0a3.46,3.46,0,0,1-3.06-2.16,3.92,3.92,0,0,1-.08-2.64,1.19,1.19,0,0,1,.27-.46,9.22,9.22,0,0,1,.74-.79,3.94,3.94,0,0,1,4-1,7.72,7.72,0,0,1,1.34.51,3.44,3.44,0,0,1,1.83,2.91,2,2,0,0,1-.11.88,4.1,4.1,0,0,1-2.59,2.58,8.23,8.23,0,0,1-1.59.21Z"/><path class="cls-56" d="M238.48,374.48a3.47,3.47,0,0,1-1.89,3.19,6.24,6.24,0,0,1-2,.68.69.69,0,0,1-.35,0,11.32,11.32,0,0,1-1.74-.42,3.81,3.81,0,0,1-2.38-2.92,3.48,3.48,0,0,1,.06-1.06,2.19,2.19,0,0,1,.12-.33,3.61,3.61,0,0,1,2.52-2.34,3.84,3.84,0,0,1,1.4-.28,4.61,4.61,0,0,1,2.84.89c.19.15.34.34.53.49A3,3,0,0,1,238.48,374.48Z"/><path class="cls-57" d="M235.85,351a3.68,3.68,0,0,1-3.31-1.65,4.07,4.07,0,0,1-.61-1.67.89.89,0,0,1,.06-.53,9,9,0,0,1,.61-1.3,3,3,0,0,1,.72-.79,5.79,5.79,0,0,1,2.34-.88,1.24,1.24,0,0,1,.54,0c.23,0,.46.17.69.19a3.25,3.25,0,0,1,2.33,1.54,3,3,0,0,1,0,3.53,3.4,3.4,0,0,1-2.91,1.53Z"/><path class="cls-55" d="M269.71,366.8a2.46,2.46,0,0,1-.91,2.05,4.15,4.15,0,0,1-2.74,1.22,3.81,3.81,0,0,1-2.22-.62,4.34,4.34,0,0,1-1.09-.92,3.14,3.14,0,0,1-.09-3.69,3,3,0,0,1,.62-.65,4.42,4.42,0,0,1,3-.9,4.3,4.3,0,0,1,2.69,1.33A2.68,2.68,0,0,1,269.71,366.8Z"/><path class="cls-58" d="M235.17,364.48a3.2,3.2,0,0,1-2-.62,3.5,3.5,0,0,1-.39-.38,1.87,1.87,0,0,1,0-2.6,2.62,2.62,0,0,1,1.53-.88,4.3,4.3,0,0,1,1.6,0,2.82,2.82,0,0,1,1.67,1,2,2,0,0,1,0,2.49A3.06,3.06,0,0,1,235.17,364.48Z"/><path class="cls-59" d="M234.38,372.26a2.94,2.94,0,0,1,2,.69,2.44,2.44,0,0,1,.72,1,1.47,1.47,0,0,1,0,1.23,3,3,0,0,1-.61.88A3.29,3.29,0,0,1,232,376a2,2,0,0,1,0-2.89A3,3,0,0,1,234.38,372.26Z"/><path class="cls-60" d="M236.35,345.52a2.55,2.55,0,0,1,1.58.77,1.83,1.83,0,0,1,0,2.59,2.4,2.4,0,0,1-1.59.74,6.38,6.38,0,0,1-1.07,0,2.3,2.3,0,0,1-1.53-.85,1.72,1.72,0,0,1,0-2.3A3,3,0,0,1,236.35,345.52Z"/><path class="cls-59" d="M265.92,364.53a3.22,3.22,0,0,1,1.82.62,1.78,1.78,0,0,1,.11,2.68,2.86,2.86,0,0,1-3.9,0,1.69,1.69,0,0,1,0-2.54A2.83,2.83,0,0,1,265.92,364.53Z"/></svg>